<svg xmlns="http://www.w3.org/2000/svg" width="16.515" height="16.545" viewBox="0 0 16.515 16.545">
  <path id="call" d="M11.69,3.961a3.7,3.7,0,0,1,2.924,2.924M11.69,1a6.663,6.663,0,0,1,5.885,5.878m-.74,5.907v2.221a1.481,1.481,0,0,1-1.614,1.481,14.651,14.651,0,0,1-6.389-2.273A14.435,14.435,0,0,1,4.391,9.772,14.65,14.65,0,0,1,2.118,3.354,1.481,1.481,0,0,1,3.591,1.74H5.812A1.481,1.481,0,0,1,7.292,3.014a9.505,9.505,0,0,0,.518,2.08,1.481,1.481,0,0,1-.333,1.562l-.94.94a11.845,11.845,0,0,0,4.442,4.442l.94-.94a1.481,1.481,0,0,1,1.562-.333,9.5,9.5,0,0,0,2.08.518,1.481,1.481,0,0,1,1.273,1.5Z" transform="translate(-1.612 -0.448)" fill="none" stroke="#44497e" stroke-linecap="round" stroke-linejoin="round" stroke-width="1"/>
</svg>
