<svg xmlns="http://www.w3.org/2000/svg" width="15.158" height="16.713" viewBox="0 0 15.158 16.713">
  <path id="check" d="M6.72,1.25a.583.583,0,0,1,.583.583V2.8h5.053V1.833a.583.583,0,0,1,1.166,0v.972c.451,0,.83.007,1.152.033a2.989,2.989,0,0,1,1.143.284A2.915,2.915,0,0,1,17.091,4.4a2.988,2.988,0,0,1,.284,1.143c.034.413.034.922.034,1.554v6.58c0,.632,0,1.142-.034,1.554a2.989,2.989,0,0,1-.284,1.143,2.916,2.916,0,0,1-1.274,1.274,2.989,2.989,0,0,1-1.143.284c-.413.034-.922.034-1.554.034H6.539c-.632,0-1.141,0-1.554-.034a2.988,2.988,0,0,1-1.143-.284,2.915,2.915,0,0,1-1.274-1.274,2.989,2.989,0,0,1-.284-1.143c-.034-.413-.034-.922-.034-1.554V7.094c0-.632,0-1.141.034-1.554A2.989,2.989,0,0,1,2.568,4.4,2.915,2.915,0,0,1,3.842,3.122a2.988,2.988,0,0,1,1.143-.284c.321-.026.7-.032,1.152-.033V1.833A.583.583,0,0,1,6.72,1.25ZM6.137,3.971c-.443,0-.78.007-1.057.029a1.86,1.86,0,0,0-.709.161,1.749,1.749,0,0,0-.764.764,1.86,1.86,0,0,0-.161.709c-.029.36-.03.822-.03,1.484v.35H16.242v-.35c0-.663,0-1.125-.03-1.484a1.861,1.861,0,0,0-.161-.709,1.75,1.75,0,0,0-.764-.764A1.86,1.86,0,0,0,14.578,4c-.277-.023-.614-.028-1.057-.029v.971a.583.583,0,0,1-1.166,0V3.971H7.3v.972a.583.583,0,0,1-1.166,0ZM16.242,8.635H3.416v5.014c0,.663,0,1.125.03,1.484a1.86,1.86,0,0,0,.161.709,1.75,1.75,0,0,0,.764.764,1.861,1.861,0,0,0,.709.161c.36.029.822.03,1.484.03h6.53c.663,0,1.125,0,1.484-.03a1.861,1.861,0,0,0,.709-.161,1.75,1.75,0,0,0,.764-.764,1.861,1.861,0,0,0,.161-.709c.029-.36.03-.821.03-1.484Z" transform="translate(-2.25 -1.25)" fill="#44497e" fill-rule="evenodd"/>
</svg>
