<svg xmlns="http://www.w3.org/2000/svg" width="16.713" height="16.713" viewBox="0 0 16.713 16.713">
  <path id="clock" d="M10.606,3.536a7.071,7.071,0,1,0,7.071,7.071A7.071,7.071,0,0,0,10.606,3.536ZM2.25,10.606a8.356,8.356,0,1,1,8.356,8.356A8.356,8.356,0,0,1,2.25,10.606Zm8.356-4.071a.643.643,0,0,1,.643.643V10.34l2.383,2.383a.643.643,0,0,1-.909.909l-2.571-2.571a.643.643,0,0,1-.188-.455V7.178A.643.643,0,0,1,10.606,6.535Z" transform="translate(-2.25 -2.25)" fill="#44497e" fill-rule="evenodd"/>
</svg>
