<svg xmlns="http://www.w3.org/2000/svg" width="14.054" height="15.496" viewBox="0 0 14.054 15.496">
  <path id="delete" d="M5.908,3.412H4.232a1.982,1.982,0,0,0-.506,3.9l.443,5.763c.042.544.076.984.132,1.34a2.757,2.757,0,0,0,.315.983,2.7,2.7,0,0,0,1.168,1.081,2.756,2.756,0,0,0,1,.239c.359.028.8.028,1.347.028H10.42c.546,0,.987,0,1.347-.028a2.756,2.756,0,0,0,1-.239A2.7,2.7,0,0,0,13.938,15.4a2.758,2.758,0,0,0,.315-.983c.056-.356.09-.8.132-1.34l.443-5.764a1.982,1.982,0,0,0-.506-3.9H12.647A2.7,2.7,0,0,0,10,1.25H8.556A2.7,2.7,0,0,0,5.908,3.412Zm1.119,0h4.5A1.622,1.622,0,0,0,10,2.331H8.556A1.622,1.622,0,0,0,7.027,3.412Zm6.712,3.964H4.816l.43,5.593c.044.572.075.969.123,1.278a1.71,1.71,0,0,0,.182.608,1.622,1.622,0,0,0,.7.649,1.711,1.711,0,0,0,.621.135c.312.025.71.025,1.284.025H10.4c.573,0,.972,0,1.284-.025a1.71,1.71,0,0,0,.62-.135,1.622,1.622,0,0,0,.7-.649,1.71,1.71,0,0,0,.182-.608c.049-.309.079-.706.123-1.278ZM4.232,4.493a.9.9,0,0,0,0,1.8h10.09a.9.9,0,1,0,0-1.8ZM6.7,9.181a.541.541,0,0,1,.592.484l.36,3.6a.541.541,0,1,1-1.076.108l-.36-3.6A.541.541,0,0,1,6.7,9.181Zm5.153,0a.541.541,0,0,1,.484.592l-.36,3.6a.541.541,0,1,1-1.076-.108l.36-3.6A.541.541,0,0,1,11.854,9.181Zm-2.576,0a.541.541,0,0,1,.541.541v3.6a.541.541,0,1,1-1.081,0v-3.6A.541.541,0,0,1,9.277,9.178Z" transform="translate(-2.25 -1.25)" fill="#44497e" fill-rule="evenodd"/>
</svg>
