<svg xmlns="http://www.w3.org/2000/svg" width="45" height="46" viewBox="0 0 45 46">
  <g id="file2" transform="translate(-425 -1132)">
    <rect id="_77777777777777777777777777777777777777777777777777777777777" data-name="77777777777777777777777777777777777777777777777777777777777" width="45" height="46" rx="6" transform="translate(425 1132)" fill="#e9f5ff"/>
    <g id="social-media_2_" data-name="social-media (2)" transform="translate(422.269 1144)">
      <path id="Path_3411" data-name="Path 3411" d="M33.33,0h-.913a.311.311,0,0,0,0,.622h.913a1.709,1.709,0,0,1,1.71,1.7v7.2a1.709,1.709,0,0,1-1.71,1.7H32.294a.311.311,0,0,0-.189.064l-1.9,1.453V11.541a.311.311,0,0,0-.311-.311H26.107a1.7,1.7,0,0,1-.871-.237V7.5A1.9,1.9,0,0,0,24.4,5.926v-3.6a1.709,1.709,0,0,1,1.71-1.7h4.36a.311.311,0,0,0,0-.622h-4.36a2.332,2.332,0,0,0-2.332,2.326V5.653a1.907,1.907,0,0,0-.444-.053h-5.7a1.9,1.9,0,0,0-1.9,1.9v.672a.311.311,0,0,0,.622,0V7.5a1.282,1.282,0,0,1,1.283-1.278h5.7A1.282,1.282,0,0,1,24.614,7.5v3.616a.311.311,0,0,0,0,.082v1.979c0,.039,0,.078-.006.117h-.642a1.443,1.443,0,0,0-1.419,1.181.312.312,0,0,0-.081.045L21.076,15.6v-.828a.311.311,0,0,0-.311-.311H17.636a1.282,1.282,0,0,1-1.283-1.278V10.039a.311.311,0,0,0-.622,0v3.14a1.9,1.9,0,0,0,1.9,1.9h2.818v1.15a.316.316,0,0,0,.5.246l1.57-1.212v3.5A1.442,1.442,0,0,0,23.967,20.2h1.909v.726a.316.316,0,0,0,.5.246l1.259-.972h.372a1.442,1.442,0,0,0,1.442-1.439v-.552a.311.311,0,0,0-.622,0v.552a.819.819,0,0,1-.82.817H27.53a.311.311,0,0,0-.19.065l-.842.65v-.4a.311.311,0,0,0-.311-.311h-2.22a.819.819,0,0,1-.82-.817V14.734a.819.819,0,0,1,.82-.817h4.042a.819.819,0,0,1,.82.817v1.527a.311.311,0,0,0,.622,0V14.734A1.442,1.442,0,0,0,28.009,13.3H25.233c0-.039,0-1.61,0-1.61a2.329,2.329,0,0,0,.871.168h3.475v1.525a.316.316,0,0,0,.5.247L32.4,11.853h.93a2.332,2.332,0,0,0,2.332-2.326v-7.2A2.332,2.332,0,0,0,33.33,0Z" fill="#2496ff"/>
      <path id="Path_3412" data-name="Path 3412" d="M270.976,54.566a.648.648,0,0,0-.8.619,1.828,1.828,0,0,1-.457,1.21l-.857.97a.311.311,0,0,0-.261-.142H266.93a.311.311,0,0,0-.311.311V61.3a.311.311,0,0,0,.311.311H268.6a.311.311,0,0,0,.283-.182,2.174,2.174,0,0,0,1.131.319h2.957a.814.814,0,0,0,.8-.843c-.009-.2,0-2.88,0-2.939a.805.805,0,0,0-.8-.8l-1.538,0,.064-.151a2.429,2.429,0,0,0-.128-2.138.634.634,0,0,0-.4-.3Zm-2.684,6.423h-1.051V57.846h1.051Zm4.682-3.205a.182.182,0,0,1,.182.182c0,.059,0,.22,0,.438,0,1.2-.008,2.342,0,2.531a.182.182,0,0,1-.182.191h-2.957a1.549,1.549,0,0,1-.972-.344l-.131-.106V58.248l1.273-1.441a2.45,2.45,0,0,0,.613-1.622.017.017,0,0,1,.032-.008,1.8,1.8,0,0,1,.1,1.587l-.246.582a.311.311,0,0,0,.286.432Z" transform="translate(-240.48 -52.267)" fill="#2496ff"/>
      <path id="Path_3413" data-name="Path 3413" d="M72.762,196.278a.311.311,0,0,0,0,.622h.917l-.171,1.036a.311.311,0,1,0,.614.1l.188-1.138h.751l-.171,1.036a.311.311,0,1,0,.614.1l.188-1.138h1.248a.311.311,0,1,0,0-.622H75.794l.125-.759h1.02a.311.311,0,0,0,0-.622h-.917l.171-1.036a.311.311,0,0,0-.614-.1l-.188,1.138h-.751l.171-1.036a.311.311,0,1,0-.614-.1L74.01,194.9H72.762a.311.311,0,1,0,0,.622h1.145l-.125.759Zm1.776-.759h.751l-.125.759h-.751Z" transform="translate(-54.367 -185.472)" fill="#2496ff"/>
      <path id="Path_3414" data-name="Path 3414" d="M221.671,368.695a1.046,1.046,0,0,0-.921-.207,1.157,1.157,0,0,0-.863,1.168,1.527,1.527,0,0,0,.46,1.093,4.564,4.564,0,0,0,1.182.815.311.311,0,0,0,.291,0c.986-.522,1.642-1.047,1.642-1.909a1.15,1.15,0,0,0-.894-1.162A1.043,1.043,0,0,0,221.671,368.695Zm1.169.961c0,.465-.308.809-1.165,1.28-.857-.472-1.165-.816-1.165-1.28a.532.532,0,0,1,.388-.563.466.466,0,0,1,.11-.013.429.429,0,0,1,.392.25.311.311,0,0,0,.558-.011.4.4,0,0,1,.477-.217A.526.526,0,0,1,222.84,369.656Z" transform="translate(-195.687 -353.172)" fill="#2496ff"/>
    </g>
  </g>
</svg>
