<svg xmlns="http://www.w3.org/2000/svg" width="45" height="46" viewBox="0 0 45 46">
  <g id="file4" transform="translate(-425 -1324)">
    <rect id="_9999999999999999999999999999999999999999" data-name="9999999999999999999999999999999999999999" width="45" height="46" rx="6" transform="translate(425 1324)" fill="#f6f7ff"/>
    <g id="browser_2_" data-name="browser (2)" transform="translate(431.582 1336)">
      <g id="Group_4453" data-name="Group 4453" transform="translate(4.418 0)">
        <path id="Path_3427" data-name="Path 3427" d="M26.685,20.829l-1.534-2.335.822-.225a.593.593,0,0,0,.142-1.074l-2.308-1.352V1.645A1.647,1.647,0,0,0,22.161,0H6.063A1.647,1.647,0,0,0,4.418,1.645V16.711a1.647,1.647,0,0,0,1.645,1.645h6.451a.445.445,0,0,0,0-.889H6.063a.757.757,0,0,1-.756-.756V3.981h17.61V15.323L21.348,14.4a.656.656,0,0,0-.7-.069.588.588,0,0,0-.294.582l.313,2.55H16.408a.445.445,0,1,0,0,.889h4.37l.266,2.172a.593.593,0,0,0,1.042.3l.533-.665,1.534,2.335a.593.593,0,0,0,.814.168l1.551-1.019A.588.588,0,0,0,26.685,20.829ZM5.307,1.645A.757.757,0,0,1,6.063.889h16.1a.757.757,0,0,1,.756.756V3.092H5.307ZM24.73,21.753l-1.6-2.429a.593.593,0,0,0-.95-.045l-.344.43-.527-4.3L25.048,17.6l-.532.146a.593.593,0,0,0-.336.889l1.6,2.429Z" transform="translate(-4.418 0)" fill="#636dff"/>
        <path id="Path_3428" data-name="Path 3428" d="M82.985,134.894h2.983a.444.444,0,0,0,.444-.445v-2.971a.444.444,0,0,0-.444-.445H82.985a.444.444,0,0,0-.444.445v2.971A.444.444,0,0,0,82.985,134.894Zm.445-2.971h2.094v2.082H83.43Z" transform="translate(-79.068 -125.21)" fill="#636dff"/>
        <path id="Path_3429" data-name="Path 3429" d="M212.171,131.924h5.82a.444.444,0,1,0,0-.889h-5.82a.444.444,0,0,0,0,.889Z" transform="translate(-202.511 -125.21)" fill="#636dff"/>
        <path id="Path_3430" data-name="Path 3430" d="M212.171,195.094h5.82a.445.445,0,0,0,0-.889h-5.82a.445.445,0,0,0,0,.889Z" transform="translate(-202.511 -185.573)" fill="#636dff"/>
        <path id="Path_3431" data-name="Path 3431" d="M82.986,258.264H94.548a.445.445,0,1,0,0-.889H82.986a.445.445,0,1,0,0,.889Z" transform="translate(-79.068 -245.935)" fill="#636dff"/>
        <path id="Path_3432" data-name="Path 3432" d="M82.986,321.433h9.6a.445.445,0,0,0,0-.889h-9.6a.445.445,0,1,0,0,.889Z" transform="translate(-79.068 -306.296)" fill="#636dff"/>
        <path id="Path_3433" data-name="Path 3433" d="M44.519,36.066a.444.444,0,1,0-.172.545A.447.447,0,0,0,44.519,36.066Z" transform="translate(-41.92 -34.207)" fill="#636dff"/>
        <path id="Path_3434" data-name="Path 3434" d="M81.172,35.951a.444.444,0,1,0-.24.581A.448.448,0,0,0,81.172,35.951Z" transform="translate(-76.944 -34.092)" fill="#636dff"/>
        <path id="Path_3435" data-name="Path 3435" d="M117.879,35.951a.444.444,0,1,0-.24.581A.448.448,0,0,0,117.879,35.951Z" transform="translate(-112.02 -34.092)" fill="#636dff"/>
        <path id="Path_3436" data-name="Path 3436" d="M221.655,393.259a.444.444,0,1,0-.24.581A.448.448,0,0,0,221.655,393.259Z" transform="translate(-211.183 -375.518)" fill="#636dff"/>
      </g>
    </g>
  </g>
</svg>
