<svg xmlns="http://www.w3.org/2000/svg" width="45" height="46" viewBox="0 0 45 46">
  <g id="file" transform="translate(-425 -1036)">
    <rect id="_433333333333333333333333333333333333333333333333333333333333333" data-name="433333333333333333333333333333333333333333333333333333333333333" width="45" height="46" rx="6" transform="translate(425 1036)" fill="#fff5e8"/>
    <g id="web-design" transform="translate(413.57 1049)">
      <path id="Path_3409" data-name="Path 3409" d="M41.356,2.666h-.243A1.752,1.752,0,0,0,38.161.779L36.9,2.666H26.047A1.619,1.619,0,0,0,24.43,4.284V14.625a1.619,1.619,0,0,0,1.617,1.617H32.33l-.475,1.994H30.831a1.212,1.212,0,0,0-1.211,1.211V19.7H28.357a.4.4,0,1,0,0,.8h10.69a.4.4,0,1,0,0-.8H37.784v-.253a1.212,1.212,0,0,0-1.211-1.211H35.548l-.475-1.994h6.283a1.619,1.619,0,0,0,1.617-1.617V4.284a1.619,1.619,0,0,0-1.617-1.617ZM35.62,9.7c-.626.438-1.8-.157-2.919.44-.273-1.42-.1-2.755,1.321-3.049a2.549,2.549,0,0,1,.55-.052l1.448,1.075A1.292,1.292,0,0,1,35.62,9.7Zm.4-4.292,1.133.841-.872,1.063-1.026-.761Zm2.8-4.189a.952.952,0,1,1,1.527,1.133L37.665,5.634l-1.2-.887ZM36.983,19.447V19.7H30.421v-.253a.411.411,0,0,1,.41-.41h5.742A.411.411,0,0,1,36.983,19.447Zm-2.258-1.211H32.678l.475-1.994h1.1Zm7.448-3.611a.818.818,0,0,1-.817.817H26.047a.818.818,0,0,1-.817-.817V12.75h1.144a.4.4,0,1,0,0-.8H25.231V4.284a.818.818,0,0,1,.817-.817H36.362L34.5,6.242a2.736,2.736,0,0,0-2.081.879c-.7.815-.82,2.095-.364,3.8a.4.4,0,0,0,.663.186c1.035-.989,2.325.09,3.479-.845a2.1,2.1,0,0,0,.606-2.326l3.67-4.474h.878a.818.818,0,0,1,.817.817v7.665h-12.6a.4.4,0,0,0,0,.8h12.6Z" transform="translate(0 0)" fill="#ff9913"/>
      <path id="Path_3410" data-name="Path 3410" d="M103.357,298.431a.4.4,0,1,0,.471.314A.4.4,0,0,0,103.357,298.431Z" transform="translate(-75.458 -286.475)" fill="#ff9913"/>
    </g>
  </g>
</svg>
