<svg xmlns="http://www.w3.org/2000/svg" width="45" height="46" viewBox="0 0 45 46">
  <g id="file3" transform="translate(-425 -1228)">
    <rect id="_8888888888888888888888888888888888888888888888888888" data-name="8888888888888888888888888888888888888888888888888888" width="45" height="46" rx="6" transform="translate(425 1228)" fill="#f9ecff"/>
    <g id="computer" transform="translate(436.995 1241)">
      <g id="Group_4452" data-name="Group 4452" transform="translate(0.005 0)">
        <path id="Path_3424" data-name="Path 3424" d="M118.8,11.287l4.255,2.025a1.213,1.213,0,0,0,1.047,0l4.255-2.025a.963.963,0,0,0,0-1.738l-.67-.319a.35.35,0,0,0-.3.632l.67.319a.262.262,0,0,1,0,.474L123.8,12.681a.516.516,0,0,1-.445,0L119.1,10.655a.262.262,0,0,1,0-.474l2.577-1.227,1.377.655a1.213,1.213,0,0,0,1.047,0l4.255-2.025a.963.963,0,0,0,0-1.738c-2.985-1.42-2.758-1.318-2.826-1.328a.355.355,0,0,0-.136.007c-.051.013.041-.027-1.593.751a.516.516,0,0,1-.445,0L119.1,3.25a.262.262,0,0,1,0-.474L123.352.751a.516.516,0,0,1,.445,0l4.255,2.025a.262.262,0,0,1,0,.474l-.821.391a.35.35,0,0,0,.3.632l.821-.391a.963.963,0,0,0,0-1.738L124.1.118a1.213,1.213,0,0,0-1.047,0L118.8,2.144a.963.963,0,0,0,0,1.738l4.255,2.025a1.213,1.213,0,0,0,1.047,0l1.377-.655,2.577,1.227a.262.262,0,0,1,0,.474L123.8,8.978a.516.516,0,0,1-.445,0L119.1,6.953a.262.262,0,0,1,0-.474l.773-.368a.35.35,0,0,0-.3-.632l-.773.368a.963.963,0,0,0,0,1.738l2.063.982-2.064.982A.963.963,0,0,0,118.8,11.287Z" transform="translate(-113.074 0)" fill="#c12eff"/>
        <path id="Path_3425" data-name="Path 3425" d="M5.513,41.152H1.4a.7.7,0,0,1-.7-.7V26.409a.7.7,0,0,1,.7-.7H4.52a.35.35,0,1,0,0-.7H1.4a1.4,1.4,0,0,0-1.4,1.4V40.452a1.4,1.4,0,0,0,1.4,1.4H5.513a.35.35,0,0,0,0-.7Z" transform="translate(-0.005 -23.915)" fill="#c12eff"/>
        <path id="Path_3426" data-name="Path 3426" d="M82.748,25.009H79.788a.35.35,0,0,0,0,.7h2.959a.7.7,0,0,1,.7.7V38.965H66.387a.35.35,0,0,0,0,.7H83.448v.787a.7.7,0,0,1-.7.7c-12.206,0-11.684-.024-11.806.044a.35.35,0,0,0-.166.208l-.613,2.176a1.05,1.05,0,0,0,1.011,1.335h4.95a1.05,1.05,0,0,0,1.011-1.335l-.181-.641a.35.35,0,0,0-.674.19l.181.641a.35.35,0,0,1-.337.445h-4.95a.35.35,0,0,1-.337-.445l.54-1.918H82.748a1.4,1.4,0,0,0,1.4-1.4V26.409A1.4,1.4,0,0,0,82.748,25.009Z" transform="translate(-63.148 -23.915)" fill="#c12eff"/>
      </g>
    </g>
  </g>
</svg>
