<svg xmlns="http://www.w3.org/2000/svg" width="19.542" height="13.679" viewBox="0 0 19.542 13.679">
  <path id="mail" d="M18.077,0a1.466,1.466,0,0,1,1.466,1.466V12.214a1.466,1.466,0,0,1-1.466,1.466H1.466A1.466,1.466,0,0,1,0,12.214V1.466A1.466,1.466,0,0,1,1.466,0Zm-.508.977H1.466a.489.489,0,0,0-.489.489V12.1l5.68-5.707L2.822,2.8a.489.489,0,0,1,.668-.713l6,5.626a.488.488,0,0,0,.515.037ZM17.632,12.7H1.757L7.37,7.062,8.877,8.472a1.481,1.481,0,0,0,1.735.044L18.561,1.4a.486.486,0,0,1,0,.066V12.214c0,.013,0,.026,0,.039L14.021,7.691a.489.489,0,0,0-.692.689Z" fill="#44497e" fill-rule="evenodd"/>
</svg>
