<svg xmlns="http://www.w3.org/2000/svg" width="14.959" height="14.986" viewBox="0 0 14.959 14.986">
  <path id="phone" d="M10.726,3.663a3.329,3.329,0,0,1,2.63,2.63M10.726,1a5.992,5.992,0,0,1,5.293,5.286M15.353,11.6v2A1.332,1.332,0,0,1,13.9,14.928a13.176,13.176,0,0,1-5.746-2.044A12.982,12.982,0,0,1,4.161,8.889,13.176,13.176,0,0,1,2.117,3.117,1.332,1.332,0,0,1,3.442,1.666h2A1.332,1.332,0,0,1,6.771,2.811a8.549,8.549,0,0,0,.466,1.871,1.332,1.332,0,0,1-.3,1.4l-.846.846a10.653,10.653,0,0,0,3.995,3.995l.846-.846a1.332,1.332,0,0,1,1.4-.3,8.546,8.546,0,0,0,1.871.466A1.332,1.332,0,0,1,15.353,11.6Z" transform="translate(-1.612 -0.448)" fill="none" stroke="#44497e" stroke-linecap="round" stroke-linejoin="round" stroke-width="1"/>
</svg>
