<svg width="23" height="23" viewBox="0 0 23 23" fill="none" xmlns="http://www.w3.org/2000/svg">
<path d="M6.17918 7.63736C6.48043 4.92614 8.7721 2.875 11.5 2.875C14.2279 2.875 16.5196 4.92614 16.8208 7.63736L17.0621 9.80915C17.1859 10.9233 17.5486 11.9976 18.1253 12.9588L18.6792 13.8821C19.1479 14.6631 19.3822 15.0537 19.3553 15.375C19.331 15.6664 19.1803 15.9325 18.943 16.1033C18.6813 16.2917 18.2258 16.2917 17.3149 16.2917H5.68506C4.77416 16.2917 4.31872 16.2917 4.05699 16.1033C3.8197 15.9325 3.66905 15.6664 3.64467 15.375C3.61779 15.0537 3.85211 14.6631 4.32076 13.8821L4.87471 12.9588C5.45145 11.9976 5.81408 10.9233 5.93787 9.80915L6.17918 7.63736Z" fill="#7E869E" fill-opacity="0.25" stroke="#7F8388" stroke-width="1.2"/>
<path d="M8.72296 16.6806C8.88677 17.3938 9.24771 18.024 9.74981 18.4735C10.2519 18.923 10.8671 19.1666 11.5 19.1666C12.1329 19.1666 12.7481 18.923 13.2502 18.4735C13.7523 18.024 14.1132 17.3938 14.277 16.6806" stroke="#7F8388" stroke-width="1.2" stroke-linecap="round"/>
</svg>
