<svg id="local_library-24px" xmlns="http://www.w3.org/2000/svg" width="29.934" height="29.934" viewBox="0 0 29.934 29.934">
  <path id="Path_2809" data-name="Path 2809" d="M0,0H29.934V29.934H0Z" fill="none"/>
  <path id="Path_2810" data-name="Path 2810" d="M14.225,10.978A4.989,4.989,0,1,0,9.236,5.989,4.988,4.988,0,0,0,14.225,10.978Zm0-7.484a2.495,2.495,0,1,1-2.495,2.495A2.5,2.5,0,0,1,14.225,3.495Zm0,10.664A16.405,16.405,0,0,0,3,9.731v13.72a16.405,16.405,0,0,1,11.225,4.428,16.463,16.463,0,0,1,11.225-4.428V9.731A16.405,16.405,0,0,0,14.225,14.159Zm8.731,6.96a18.993,18.993,0,0,0-8.731,3.517,18.958,18.958,0,0,0-8.731-3.53V12.437a13.943,13.943,0,0,1,7.035,3.53l1.7,1.6,1.7-1.584a13.943,13.943,0,0,1,7.035-3.53Z" transform="translate(0.742 0.247)" fill="#e63e45"/>
</svg>
