<svg xmlns="http://www.w3.org/2000/svg" width="18.298" height="17.153" viewBox="0 0 18.298 17.153">
  <g id="browser" transform="translate(0 -16.017)">
    <path id="Path_765" data-name="Path 765" d="M53.795,202.828H41.644A1.646,1.646,0,0,1,40,201.184v-8.649a.572.572,0,0,1,1.144,0v8.649a.5.5,0,0,0,.5.5H53.795a.5.5,0,0,0,.5-.5v-8.649a.572.572,0,0,1,1.144,0v8.649A1.646,1.646,0,0,1,53.795,202.828Z" transform="translate(-38.57 -169.658)" fill="#47b181"/>
    <path id="Path_766" data-name="Path 766" d="M17.726,24.878a.57.57,0,0,1-.4-.168L10.211,17.6a1.5,1.5,0,0,0-2.123,0L.976,24.71A.572.572,0,0,1,.168,23.9L7.279,16.79a2.648,2.648,0,0,1,3.74,0L18.131,23.9a.572.572,0,0,1-.4.976Z" transform="translate(0 0)" fill="#47b181"/>
    <path id="Path_767" data-name="Path 767" d="M181.146,295.417h-4.574a.572.572,0,0,1-.572-.572V289.77a1.789,1.789,0,0,1,1.787-1.787h2.144a1.789,1.789,0,0,1,1.787,1.787v5.075A.572.572,0,0,1,181.146,295.417Zm-4-1.144h3.431v-4.5a.644.644,0,0,0-.643-.643h-2.144a.644.644,0,0,0-.643.643Z" transform="translate(-169.71 -262.246)" fill="#47b181"/>
  </g>
</svg>
