<svg xmlns="http://www.w3.org/2000/svg" width="67.007" height="56.484" viewBox="0 0 67.007 56.484">
  <g id="_004-cap" data-name="004-cap" transform="translate(0 -60.986)">
    <path id="Path_412" data-name="Path 412" d="M65.5,78.428q-4.3-1.126-8.658-1.944l-1.114-8.656c-.5-3.9-3.565-6.842-7.126-6.842H18.417c-3.557,0-6.62,2.938-7.125,6.835L10.17,76.484q-4.356.821-8.659,1.944A2.193,2.193,0,0,0,.056,81.056L7.7,115.811a1.963,1.963,0,0,0,2.36,1.6c26.017-6.816,46.064.059,47.337.059a2.014,2.014,0,0,0,1.906-1.659l7.646-34.755A2.194,2.194,0,0,0,65.5,78.428Zm-50.317-9.99a3.416,3.416,0,0,1,3.239-3.107H48.6a3.415,3.415,0,0,1,3.239,3.11l.945,7.347a125.306,125.306,0,0,0-38.557,0Zm40.768,44.268a95.8,95.8,0,0,0-44.887,0L4.342,82.168a122.939,122.939,0,0,1,58.324,0Z" transform="translate(0 0)" fill="#ea5d5d"/>
    <path id="Path_413" data-name="Path 413" d="M184.979,217.968v1.963h-1.963a1.963,1.963,0,0,0-1.963,1.963v7.839a1.963,1.963,0,0,0,1.963,1.963h1.963v1.976a1.963,1.963,0,0,0,1.963,1.963h7.839a1.963,1.963,0,0,0,1.963-1.963V231.7h1.963a1.963,1.963,0,0,0,1.963-1.963v-7.839a1.963,1.963,0,0,0-1.963-1.963h-1.963v-1.963a1.963,1.963,0,0,0-1.963-1.963h-7.839A1.963,1.963,0,0,0,184.979,217.968Zm3.926,3.926v-1.963h3.913v1.963a1.963,1.963,0,0,0,1.963,1.963h1.963v3.913h-1.963a1.963,1.963,0,0,0-1.963,1.963v1.976h-3.913v-1.976a1.963,1.963,0,0,0-1.963-1.963h-1.963v-3.913h1.963A1.963,1.963,0,0,0,188.905,221.894Z" transform="translate(-157.358 -131.219)" fill="#ea5d5d"/>
  </g>
</svg>
