<svg xmlns="http://www.w3.org/2000/svg" width="20.279" height="21.077" viewBox="0 0 20.279 21.077">
  <g id="cart" transform="translate(-9.698 0)">
    <g id="Group_4602" data-name="Group 4602" transform="translate(9.698 0)">
      <g id="Group_4601" data-name="Group 4601" transform="translate(0 0)">
        <path id="Path_3628" data-name="Path 3628" d="M132.605,382.711a2.661,2.661,0,1,0,2.661,2.661A2.664,2.664,0,0,0,132.605,382.711Zm0,3.726a1.064,1.064,0,1,1,1.064-1.064A1.066,1.066,0,0,1,132.605,386.437Z" transform="translate(-124.994 -366.956)" fill="#38424c"/>
        <path id="Path_3629" data-name="Path 3629" d="M323.956,382.711a2.661,2.661,0,1,0,2.661,2.661A2.664,2.664,0,0,0,323.956,382.711Zm0,3.726a1.064,1.064,0,1,1,1.064-1.064A1.065,1.065,0,0,1,323.956,386.437Z" transform="translate(-308.468 -366.956)" fill="#38424c"/>
        <path id="Path_3630" data-name="Path 3630" d="M29.8,5.2a.8.8,0,0,0-.625-.3H15.2l-.726-3.668A.8.8,0,0,0,13.834.6L10.641.013a.8.8,0,1,0-.288,1.571l2.66.488,2.343,11.842a.8.8,0,0,0,.783.643H27.316a.8.8,0,0,0,.778-.619l1.863-8.063A.8.8,0,0,0,29.8,5.2ZM26.681,12.96H16.794L15.515,6.494H28.174Z" transform="translate(-9.698 0)" fill="#38424c"/>
      </g>
    </g>
  </g>
</svg>
