<svg xmlns="http://www.w3.org/2000/svg" width="17.5" height="19.5" viewBox="0 0 17.5 19.5">
  <g id="Exchange" transform="translate(10998.75 117.75)">
    <g id="Form_light" transform="translate(-11002 -120)">
      <path id="Path_3468" data-name="Path 3468" d="M4,7c0-1.886,0-2.828.586-3.414S6.114,3,8,3h8c1.886,0,2.828,0,3.414.586S20,5.114,20,7v8c0,2.828,0,4.243-.879,5.121S16.828,21,14,21H10c-2.828,0-4.243,0-5.121-.879S4,17.828,4,15Z" fill="none" stroke="#8197b4" stroke-width="1.5"/>
      <path id="Path_3469" data-name="Path 3469" d="M15,18v3M9,18v3" fill="none" stroke="#8197b4" stroke-linecap="round" stroke-width="1.5"/>
      <path id="Path_3470" data-name="Path 3470" d="M9,8h6" fill="none" stroke="#8197b4" stroke-linecap="round" stroke-width="1.5"/>
      <path id="Path_3471" data-name="Path 3471" d="M9,12h6" fill="none" stroke="#8197b4" stroke-linecap="round" stroke-width="1.5"/>
    </g>
  </g>
</svg>
