<svg xmlns="http://www.w3.org/2000/svg" width="18.115" height="18.115" viewBox="0 0 18.115 18.115">
  <path id="full_screen" d="M18.735,3.654c-.12-.01-.282-.01-.553-.01H15.023a.7.7,0,0,1,0-1.393h3.183c.239,0,.459,0,.643.015a1.648,1.648,0,0,1,.629.162,1.626,1.626,0,0,1,.71.71,1.649,1.649,0,0,1,.162.629c.015.184.015.4.015.643V7.592a.7.7,0,1,1-1.393,0V4.433c0-.272,0-.433-.01-.553a.593.593,0,0,0-.016-.112.232.232,0,0,0-.1-.1A.581.581,0,0,0,18.735,3.654Zm.115.017h0Zm.094.094h0ZM4.409,2.25H7.592a.7.7,0,1,1,0,1.393H4.433c-.272,0-.433,0-.553.01a.582.582,0,0,0-.112.016.232.232,0,0,0-.1.1.583.583,0,0,0-.016.112c-.01.12-.01.282-.01.553V7.592a.7.7,0,1,1-1.393,0V4.409c0-.239,0-.459.015-.643a1.648,1.648,0,0,1,.162-.629,1.626,1.626,0,0,1,.71-.71,1.648,1.648,0,0,1,.629-.162C3.95,2.25,4.17,2.25,4.409,2.25ZM3.671,3.766h0Zm.094-.1h0ZM2.947,14.327a.7.7,0,0,1,.7.7v3.158c0,.272,0,.433.01.553a.581.581,0,0,0,.016.112.232.232,0,0,0,.1.1.593.593,0,0,0,.112.016c.12.01.282.01.553.01H7.592a.7.7,0,1,1,0,1.393H4.409c-.239,0-.459,0-.643-.015a1.649,1.649,0,0,1-.629-.162,1.626,1.626,0,0,1-.71-.71,1.648,1.648,0,0,1-.162-.629c-.015-.184-.015-.4-.015-.643V15.023A.7.7,0,0,1,2.947,14.327Zm.818,4.617h0Zm-.094-.094h0Zm16-4.523a.7.7,0,0,1,.7.7v3.183c0,.239,0,.459-.015.643a1.649,1.649,0,0,1-.162.629,1.626,1.626,0,0,1-.71.71,1.649,1.649,0,0,1-.629.162c-.184.015-.4.015-.643.015H15.023a.7.7,0,1,1,0-1.393h3.158c.272,0,.433,0,.553-.01a.592.592,0,0,0,.112-.016.232.232,0,0,0,.1-.1.592.592,0,0,0,.016-.112c.01-.12.01-.282.01-.553V15.023A.7.7,0,0,1,19.668,14.327Zm-.818,4.617h0Z" transform="translate(-2.25 -2.25)" fill="#44497e" fill-rule="evenodd"/>
</svg>
