<svg xmlns="http://www.w3.org/2000/svg" width="19.013" height="19.013" viewBox="0 0 19.013 19.013">
  <g id="gear" transform="translate(0 0)">
    <path id="Path_51346" data-name="Path 51346" d="M138.154,133.609a4.545,4.545,0,1,0,4.545,4.545A4.55,4.55,0,0,0,138.154,133.609Zm0,7.954a3.409,3.409,0,1,1,3.409-3.409A3.413,3.413,0,0,1,138.154,141.563Zm0,0" transform="translate(-128.648 -128.648)" fill="#fff"/>
    <path id="Path_51347" data-name="Path 51347" d="M18.565,7.341,17.1,7.024a7.953,7.953,0,0,0-.47-1.134l.809-1.258a.568.568,0,0,0-.076-.709L15.09,1.646a.568.568,0,0,0-.709-.076l-1.258.809a7.953,7.953,0,0,0-1.134-.47L11.671.447A.568.568,0,0,0,11.116,0H7.9a.568.568,0,0,0-.555.447L7.024,1.908a7.953,7.953,0,0,0-1.134.47L4.631,1.57a.568.568,0,0,0-.709.076L1.646,3.922a.568.568,0,0,0-.076.709L2.379,5.89a7.953,7.953,0,0,0-.47,1.134L.447,7.341A.568.568,0,0,0,0,7.9v3.219a.568.568,0,0,0,.447.555l1.461.318a7.953,7.953,0,0,0,.47,1.134L1.57,14.381a.568.568,0,0,0,.076.709l2.277,2.277a.568.568,0,0,0,.709.076l1.258-.809a7.953,7.953,0,0,0,1.134.47l.318,1.461a.568.568,0,0,0,.555.447h3.219a.568.568,0,0,0,.555-.447l.318-1.461a7.953,7.953,0,0,0,1.134-.47l1.258.809a.568.568,0,0,0,.709-.076l2.277-2.277a.568.568,0,0,0,.076-.709l-.809-1.258a7.953,7.953,0,0,0,.47-1.134l1.461-.318a.568.568,0,0,0,.447-.555V7.9A.568.568,0,0,0,18.565,7.341Zm-.689,3.317-1.34.291a.568.568,0,0,0-.427.4,6.816,6.816,0,0,1-.629,1.518.568.568,0,0,0,.017.586l.742,1.154-1.629,1.629L13.456,15.5a.568.568,0,0,0-.586-.017,6.821,6.821,0,0,1-1.518.629.568.568,0,0,0-.4.427l-.291,1.34h-2.3l-.291-1.34a.568.568,0,0,0-.4-.427,6.817,6.817,0,0,1-1.518-.629.568.568,0,0,0-.586.017L4.4,16.239,2.773,14.61l.742-1.154a.568.568,0,0,0,.017-.586,6.824,6.824,0,0,1-.63-1.518.568.568,0,0,0-.426-.4l-1.34-.291v-2.3l1.34-.291a.568.568,0,0,0,.427-.4,6.817,6.817,0,0,1,.629-1.518.568.568,0,0,0-.017-.586L2.773,4.4,4.4,2.773l1.154.742a.568.568,0,0,0,.586.017A6.82,6.82,0,0,1,7.661,2.9a.568.568,0,0,0,.4-.427l.291-1.34h2.3l.291,1.34a.568.568,0,0,0,.4.427,6.817,6.817,0,0,1,1.518.629.568.568,0,0,0,.586-.017l1.154-.742L16.239,4.4,15.5,5.556a.568.568,0,0,0-.017.586,6.817,6.817,0,0,1,.63,1.518.568.568,0,0,0,.426.4l1.34.291Zm0,0" transform="translate(0 0)" fill="#fff"/>
  </g>
</svg>
