<svg xmlns="http://www.w3.org/2000/svg" width="23.349" height="20.748" viewBox="0 0 23.349 20.748">
  <path id="heart" d="M1868.313,222.045c-.042-.266-.089-.532-.153-.793a7.176,7.176,0,0,0-11.314-3.973.187.187,0,0,1-.276.006,7.065,7.065,0,0,0-5.837-1.317,7.2,7.2,0,0,0-3.521,12.2q3.794,3.784,7.58,7.576a2.806,2.806,0,0,0,.412.347,2.678,2.678,0,0,0,3.474-.4c2.522-2.539,5.067-5.056,7.586-7.6a7.075,7.075,0,0,0,2.116-5.027A7.918,7.918,0,0,0,1868.313,222.045Zm-3.3,4.916q-3.76,3.775-7.535,7.537a.988.988,0,0,1-1.55,0l-7.55-7.55a5.447,5.447,0,0,1-1.648-4.357,5.507,5.507,0,0,1,4.528-5.008,5.72,5.72,0,0,1,.959-.084,5.393,5.393,0,0,1,3.792,1.527.879.879,0,0,0,1.37.013,5.432,5.432,0,0,1,4.251-1.526,5.533,5.533,0,0,1,4.95,4.391A5.427,5.427,0,0,1,1865.015,226.961Z" transform="translate(-1845.032 -215.81)" fill="#38424c"/>
</svg>
