<svg xmlns="http://www.w3.org/2000/svg" width="18.822" height="18.822" viewBox="0 0 18.822 18.822">
  <g id="info" transform="translate(0 -0.001)">
    <path id="Path_55297" data-name="Path 55297" d="M95.048,53.665a.949.949,0,1,0-.948-.947A.949.949,0,0,0,95.048,53.665Z" transform="translate(-85.637 -47.111)" fill="#20265b"/>
    <path id="Path_55298" data-name="Path 55298" d="M82.473,97.349H81.465V93.571a.674.674,0,0,0-.675-.675H79.108a.675.675,0,0,0,0,1.349h1.008v3.779a.675.675,0,0,0,.675.675h1.683a.675.675,0,1,0,0-1.349Z" transform="translate(-71.379 -84.54)" fill="#20265b"/>
    <path id="Path_55299" data-name="Path 55299" d="M9.411,0a9.411,9.411,0,1,0,9.411,9.411A9.422,9.422,0,0,0,9.411,0Zm0,17.473a8.062,8.062,0,1,1,8.062-8.062A8.071,8.071,0,0,1,9.411,17.474Z" fill="#20265b"/>
  </g>
</svg>
