<svg width="24" height="24" viewBox="0 0 24 24" fill="none" xmlns="http://www.w3.org/2000/svg">
<path fill-rule="evenodd" clip-rule="evenodd" d="M2.28906 12C2.28906 12.5189 2.55342 12.9941 3.08213 13.9445L4.43138 16.37L5.8573 18.7512C6.41605 19.6843 6.69542 20.1509 7.14475 20.4103C7.59408 20.6697 8.13781 20.6784 9.22527 20.6957L12.0004 20.74L14.7756 20.6957C15.8631 20.6784 16.4068 20.6697 16.8561 20.4103C17.3055 20.1509 17.5848 19.6843 18.1436 18.7512L19.5695 16.37L20.9188 13.9445C21.4475 12.9941 21.7118 12.5189 21.7118 12C21.7118 11.4812 21.4475 11.0059 20.9188 10.0555L19.5695 7.63001L18.1436 5.24877C17.5848 4.31568 17.3055 3.84913 16.8561 3.58971C16.4068 3.33029 15.8631 3.32161 14.7756 3.30427L12.0004 3.26001L9.22527 3.30427C8.13781 3.32161 7.59408 3.33029 7.14475 3.58971C6.69542 3.84913 6.41605 4.31568 5.8573 5.24877L5.8573 5.24877L4.43138 7.63001L3.08213 10.0555C2.55342 11.0059 2.28906 11.4812 2.28906 12ZM12.0004 15C13.6573 15 15.0004 13.6569 15.0004 12C15.0004 10.3432 13.6573 9.00001 12.0004 9.00001C10.3436 9.00001 9.00044 10.3432 9.00044 12C9.00044 13.6569 10.3436 15 12.0004 15Z" fill="#7E869E" fill-opacity="0.25"/>
<path d="M3.08168 13.9445C2.55298 12.9941 2.28862 12.5188 2.28862 12C2.28862 11.4812 2.55298 11.0059 3.08169 10.0555L4.43094 7.63L5.85685 5.24876C6.4156 4.31567 6.69498 3.84912 7.14431 3.5897C7.59364 3.33028 8.13737 3.3216 9.22483 3.30426L12 3.26L14.7752 3.30426C15.8626 3.3216 16.4064 3.33028 16.8557 3.5897C17.305 3.84912 17.5844 4.31567 18.1431 5.24876L19.5691 7.63L20.9183 10.0555C21.447 11.0059 21.7114 11.4812 21.7114 12C21.7114 12.5188 21.447 12.9941 20.9183 13.9445L19.5691 16.37L18.1431 18.7512C17.5844 19.6843 17.305 20.1509 16.8557 20.4103C16.4064 20.6697 15.8626 20.6784 14.7752 20.6957L12 20.74L9.22483 20.6957C8.13737 20.6784 7.59364 20.6697 7.14431 20.4103C6.69498 20.1509 6.4156 19.6843 5.85685 18.7512L4.43094 16.37L3.08168 13.9445Z" stroke="#7F8388" stroke-width="1.2"/>
<circle cx="12" cy="12" r="3" stroke="#7F8388" stroke-width="1.2"/>
</svg>
