<svg id="pharma" xmlns="http://www.w3.org/2000/svg" width="57.453" height="57.453" viewBox="0 0 57.453 57.453">
  <g id="Group_390" data-name="Group 390" transform="translate(0 0)">
    <path id="Path_408" data-name="Path 408" d="M39.727,255.4C23.886,255.4,11,267.242,11,281.805a2.392,2.392,0,0,0,4.784,0c0-11.913,10.74-21.609,23.943-21.609s23.943,9.7,23.943,21.609a2.392,2.392,0,0,0,4.784,0C68.453,267.242,55.567,255.4,39.727,255.4Z" transform="translate(-11 -226.744)" fill="#2daab8"/>
    <path id="Path_409" data-name="Path 409" d="M150.688,37.933a13.743,13.743,0,0,0,13.976-13.46A13.992,13.992,0,0,0,136.7,24.46,13.756,13.756,0,0,0,150.688,37.933Zm0-22.149a8.958,8.958,0,0,1,9.193,8.677,9.208,9.208,0,0,1-18.385,0A8.958,8.958,0,0,1,150.688,15.784Z" transform="translate(-121.961 -11)" fill="#2daab8"/>
    <path id="Path_410" data-name="Path 410" d="M239.259,333.336h-3.887v-3.774a1.762,1.762,0,0,0-3.524,0v3.774h-3.887a1.762,1.762,0,1,0,0,3.524h3.887v3.774a1.762,1.762,0,1,0,3.524,0V336.86h3.887a1.762,1.762,0,1,0,0-3.524Z" transform="translate(-198.318 -288.045)" fill="#2daab8"/>
  </g>
</svg>
