<svg id="people-24px" xmlns="http://www.w3.org/2000/svg" width="29.934" height="29.934" viewBox="0 0 29.934 29.934">
  <path id="Path_2811" data-name="Path 2811" d="M0,0H29.934V29.934H0Z" fill="none"/>
  <path id="Path_2812" data-name="Path 2812" d="M10.731,15.913C7.812,15.913,2,17.373,2,20.279v2.183H19.462V20.279C19.462,17.373,13.649,15.913,10.731,15.913ZM4.919,19.967a12.026,12.026,0,0,1,5.812-1.559,12.026,12.026,0,0,1,5.812,1.559Zm5.812-6.236A4.365,4.365,0,1,0,6.365,9.365,4.37,4.37,0,0,0,10.731,13.731Zm0-6.236A1.871,1.871,0,1,1,8.86,9.365,1.868,1.868,0,0,1,10.731,7.495Zm8.781,8.494a5.229,5.229,0,0,1,2.445,4.291v2.183h4.989V20.279C26.945,17.759,22.58,16.325,19.511,15.988Zm-1.3-2.258a4.365,4.365,0,1,0,0-8.731,4.3,4.3,0,0,0-1.871.437,6.812,6.812,0,0,1,0,7.858A4.3,4.3,0,0,0,18.214,13.731Z" transform="translate(0.495 1.236)" fill="#e63e45"/>
</svg>
