<svg id="sentiment_satisfied-24px" xmlns="http://www.w3.org/2000/svg" width="29.934" height="29.934" viewBox="0 0 29.934 29.934">
  <path id="Path_2813" data-name="Path 2813" d="M0,0H29.934V29.934H0Z" fill="none"/>
  <circle id="Ellipse_4" data-name="Ellipse 4" cx="2" cy="2" r="2" transform="translate(17 10)" fill="#e63e45"/>
  <ellipse id="Ellipse_5" data-name="Ellipse 5" cx="1.5" cy="2" rx="1.5" ry="2" transform="translate(9 10)" fill="#e63e45"/>
  <path id="Path_2814" data-name="Path 2814" d="M14.473,19.462a4.985,4.985,0,0,1-4.3-2.495H8.087a6.854,6.854,0,0,0,12.772,0H18.776a4.985,4.985,0,0,1-4.3,2.495ZM14.46,2A12.473,12.473,0,1,0,26.945,14.473,12.466,12.466,0,0,0,14.46,2Zm.012,22.451a9.978,9.978,0,1,1,9.978-9.978A9.975,9.975,0,0,1,14.473,24.451Z" transform="translate(0.495 0.495)" fill="#e63e45"/>
</svg>
