<svg id="account_balance_wallet-24px" xmlns="http://www.w3.org/2000/svg" width="29.934" height="29.934" viewBox="0 0 29.934 29.934">
  <path id="Path_2815" data-name="Path 2815" d="M0,0H29.934V29.934H0Z" fill="none"/>
  <path id="Path_2816" data-name="Path 2816" d="M25.451,8.338V5.495A2.5,2.5,0,0,0,22.956,3H5.495A2.494,2.494,0,0,0,3,5.495V22.956a2.494,2.494,0,0,0,2.495,2.495H22.956a2.5,2.5,0,0,0,2.495-2.495V20.112A2.5,2.5,0,0,0,26.7,17.967V10.484a2.5,2.5,0,0,0-1.247-2.145ZM24.2,10.484v7.484H15.473V10.484ZM5.495,22.956V5.495H22.956V7.989H15.473a2.5,2.5,0,0,0-2.495,2.495v7.484a2.5,2.5,0,0,0,2.495,2.495h7.484v2.495Z" transform="translate(0.742 0.742)" fill="#e63e45"/>
  <circle id="Ellipse_6" data-name="Ellipse 6" cx="1.871" cy="1.871" r="1.871" transform="translate(18.085 13.096)" fill="#e63e45"/>
</svg>
