<svg id="wheel" xmlns="http://www.w3.org/2000/svg" width="61.867" height="61.865" viewBox="0 0 61.867 61.865">
  <path id="Path_411" data-name="Path 411" d="M72.36,57.74a2.59,2.59,0,0,0-3.611-.53l-1.023.77L62.55,48.485a2.572,2.572,0,0,0-2.26-1.338H39.37V31.719H51.957a2.576,2.576,0,0,0,0-5.151H39.37V25.242a7.386,7.386,0,1,0-5.151,0v1.326A23.15,23.15,0,1,0,57.475,52.3H58.75l5.871,10.757a2.582,2.582,0,0,0,3.813.833l3.409-2.538A2.6,2.6,0,0,0,72.36,57.74ZM36.794,16.151a2.2,2.2,0,1,1-2.235,2.2A2.215,2.215,0,0,1,36.794,16.151ZM34.307,67.714a17.992,17.992,0,1,1-.088-35.983V49.723A2.57,2.57,0,0,0,36.794,52.3H52.273A18.131,18.131,0,0,1,34.307,67.714Z" transform="translate(-11 -11)" fill="#fcad73"/>
</svg>
