<svg xmlns="http://www.w3.org/2000/svg" width="12.277" height="16.136" viewBox="0 0 12.277 16.136">
  <g id="file_3" transform="translate(-57.651)">
    <path id="Path_2569" data-name="Path 2569" d="M65.849,0H59.368a1.72,1.72,0,0,0-1.717,1.717v12.7a1.72,1.72,0,0,0,1.717,1.717h8.843a1.72,1.72,0,0,0,1.717-1.717V4.065Zm2.362,15.084H59.368a.666.666,0,0,1-.665-.665V1.717a.666.666,0,0,1,.665-.665H60.2v.761a.269.269,0,0,0,.269.269h1.014V3.207H60.465a.269.269,0,0,0-.269.269v.588a.269.269,0,0,0,.269.269h1.014V5.457H60.465a.269.269,0,0,0-.269.269v.588a.269.269,0,0,0,.269.269h1.014v.856a.269.269,0,0,0,.269.269H63.23a.269.269,0,0,0,.268-.269V6.851a.269.269,0,0,0-.268-.269H62.216V5.457H63.23a.269.269,0,0,0,.268-.269V4.6a.269.269,0,0,0-.268-.269H62.216V3.207H63.23a.269.269,0,0,0,.268-.269V2.35a.269.269,0,0,0-.268-.269H62.216V1.05l3.24,0V3.3a1.192,1.192,0,0,0,1.191,1.192l2.2-.006.025,9.937A.665.665,0,0,1,68.211,15.084Z" fill="#fff"/>
    <path id="Path_2570" data-name="Path 2570" d="M151.451,254.314v-1.375a.268.268,0,0,0-.268-.268h-.746a.269.269,0,0,0-.268.268v1.375l-.415,1.219a1.116,1.116,0,1,0,2.112,0Zm-.173,1.914a.6.6,0,0,1-.936,0,.578.578,0,0,1-.077-.521l.139-.409h.812l.139.409A.577.577,0,0,1,151.278,256.227Z" transform="translate(-88.962 -244.214)" fill="#fff"/>
  </g>
</svg>
