<svg xmlns="http://www.w3.org/2000/svg" width="16.604" height="15.22" viewBox="0 0 16.604 15.22">
  <g id="file_1" transform="translate(0 -2)">
    <g id="Group_3426" data-name="Group 3426" transform="translate(0 7.328)">
      <path id="Path_2565" data-name="Path 2565" d="M12.074,19.593a1.38,1.38,0,0,1-.353-.046l-10.7-2.865a1.4,1.4,0,0,1-.978-1.695L1.4,9.957a.346.346,0,0,1,.668.178L.715,15.165a.7.7,0,0,0,.491.85L11.9,18.879a.689.689,0,0,0,.842-.487l.54-2a.346.346,0,0,1,.668.18l-.54,2a1.382,1.382,0,0,1-1.336,1.025Z" transform="translate(0 -9.701)" fill="#fff"/>
    </g>
    <g id="Group_3427" data-name="Group 3427" transform="translate(2.767 2)">
      <path id="Path_2566" data-name="Path 2566" d="M16.453,13.069H5.384A1.385,1.385,0,0,1,4,11.685v-8.3A1.385,1.385,0,0,1,5.384,2H16.453a1.385,1.385,0,0,1,1.384,1.384v8.3A1.385,1.385,0,0,1,16.453,13.069ZM5.384,2.692a.693.693,0,0,0-.692.692v8.3a.693.693,0,0,0,.692.692H16.453a.693.693,0,0,0,.692-.692v-8.3a.693.693,0,0,0-.692-.692Z" transform="translate(-4 -2)" fill="#fff"/>
    </g>
    <g id="Group_3428" data-name="Group 3428" transform="translate(4.843 4.075)">
      <path id="Path_2567" data-name="Path 2567" d="M8.384,7.767A1.384,1.384,0,1,1,9.767,6.384,1.385,1.385,0,0,1,8.384,7.767Zm0-2.075a.692.692,0,1,0,.692.692A.693.693,0,0,0,8.384,5.692Z" transform="translate(-7 -5)" fill="#fff"/>
    </g>
    <g id="Group_3429" data-name="Group 3429" transform="translate(2.816 5.84)">
      <path id="Path_2568" data-name="Path 2568" d="M4.416,14.039a.346.346,0,0,1-.245-.59l3.267-3.267a1.063,1.063,0,0,1,1.467,0l.973.973,2.693-3.231a1.039,1.039,0,0,1,.79-.374h.008a1.037,1.037,0,0,1,.788.362l3.618,4.221a.346.346,0,0,1-.525.45L13.631,8.362a.342.342,0,0,0-.263-.12.367.367,0,0,0-.266.125l-2.935,3.522a.345.345,0,0,1-.25.124.333.333,0,0,1-.26-.1l-1.24-1.24a.355.355,0,0,0-.489,0L4.66,13.938a.345.345,0,0,1-.244.1Z" transform="translate(-4.07 -7.55)" fill="#fff"/>
    </g>
  </g>
</svg>
