<svg xmlns="http://www.w3.org/2000/svg" width="12.625" height="15.508" viewBox="0 0 12.625 15.508">
  <g id="file_2" transform="translate(-44.806)">
    <path id="Path_2562" data-name="Path 2562" d="M119.289,297.823c0-.258-.179-.411-.494-.411a1.1,1.1,0,0,0-.262.025v.826a.992.992,0,0,0,.212.016C119.081,298.279,119.289,298.11,119.289,297.823Z" transform="translate(-71.356 -287.846)" fill="#fff"/>
    <path id="Path_2563" data-name="Path 2563" d="M194.09,297.681a1.3,1.3,0,0,0-.286.025v1.83a1.146,1.146,0,0,0,.22.013.867.867,0,0,0,.946-.979A.8.8,0,0,0,194.09,297.681Z" transform="translate(-144.206 -288.106)" fill="#fff"/>
    <path id="Path_2564" data-name="Path 2564" d="M53.511,0H47.283a1.653,1.653,0,0,0-1.651,1.651v6.1h-.161a.665.665,0,0,0-.665.665v4.034a.665.665,0,0,0,.665.665h.161v.74a1.652,1.652,0,0,0,1.651,1.651h8.5a1.652,1.652,0,0,0,1.65-1.651V3.906ZM46.551,9.147a5.213,5.213,0,0,1,.855-.058,1.341,1.341,0,0,1,.855.224.818.818,0,0,1,.3.647.894.894,0,0,1-.257.664,1.3,1.3,0,0,1-.909.295,1.638,1.638,0,0,1-.216-.012v1h-.627Zm9.231,5.35h-8.5a.64.64,0,0,1-.639-.64v-.74h7.922a.665.665,0,0,0,.665-.665V8.419a.665.665,0,0,0-.665-.665H46.644v-6.1a.64.64,0,0,1,.639-.639l5.85-.006V3.168a1.145,1.145,0,0,0,1.145,1.145L56.4,4.307l.024,9.55A.64.64,0,0,1,55.781,14.5Zm-6.818-2.6V9.147a5.7,5.7,0,0,1,.855-.058,1.8,1.8,0,0,1,1.146.3,1.238,1.238,0,0,1,.473,1.054,1.418,1.418,0,0,1-.465,1.133,2.008,2.008,0,0,1-1.291.361A5.476,5.476,0,0,1,48.964,11.894Zm4.53-1.627v.515h-1v1.125h-.635V9.11h1.71v.519H52.489v.639Z" fill="#fff"/>
  </g>
</svg>
