<svg width="56" height="56" viewBox="0 0 56 56" fill="none" xmlns="http://www.w3.org/2000/svg">
<rect width="56" height="56" rx="10" fill="#9E3EBF"/>
<path fill-rule="evenodd" clip-rule="evenodd" d="M22.9865 18.5012C22.9103 18.0465 22.533 17.7029 22.0731 17.6693C21.6133 17.6357 21.1901 17.9209 21.0486 18.3597L18.262 27H14.667C14.1147 27 13.667 27.4477 13.667 28C13.667 28.5523 14.1147 29 14.667 29H18.9902C19.4243 29 19.8087 28.72 19.942 28.3069L21.6928 22.8781L24.1454 37.4988C24.2227 37.9595 24.6088 38.3054 25.0753 38.3317C25.5417 38.3581 25.9643 38.0579 26.093 37.6087L29.3323 26.3021L31.0388 32.2747C31.1488 32.6596 31.4777 32.9418 31.8748 32.9921C32.272 33.0423 32.6608 32.8509 32.8632 32.5055L34.9169 29H36.4717C36.907 30.539 38.322 31.6666 40.0003 31.6666C42.0254 31.6666 43.667 30.025 43.667 28C43.667 25.9749 42.0254 24.3333 40.0003 24.3333C38.322 24.3333 36.907 25.461 36.4717 27H34.3438C33.9888 27 33.6604 27.1882 33.4809 27.4945L32.3195 29.477L30.2952 22.3919C30.1726 21.9628 29.7804 21.6668 29.334 21.6666C28.8877 21.6665 28.4953 21.9621 28.3723 22.3912L25.387 32.8111L22.9865 18.5012ZM38.3337 28C38.3337 27.0795 39.0799 26.3333 40.0003 26.3333C40.9208 26.3333 41.667 27.0795 41.667 28C41.667 28.9205 40.9208 29.6666 40.0003 29.6666C39.0799 29.6666 38.3337 28.9205 38.3337 28Z" fill="white"/>
</svg>
