<svg width="56" height="56" viewBox="0 0 56 56" fill="none" xmlns="http://www.w3.org/2000/svg">
<rect width="56" height="56" rx="10" fill="#F9896B"/>
<path d="M18.4543 21.2848C18.0777 21.1855 17.7646 20.9239 17.5999 20.571C17.4351 20.218 17.4356 19.8101 17.6012 19.4576L20.5075 13.2724C20.7241 12.8115 21.1878 12.5174 21.6971 12.5181C22.2063 12.5187 22.6693 12.8139 22.8847 13.2753L24.1668 16.0215C24.2127 16.0035 24.26 15.9879 24.3087 15.9748C31.9165 13.9363 39.7365 18.4511 41.775 26.059C43.8135 33.6669 39.2987 41.4868 31.6908 43.5253C24.083 45.5638 16.263 41.049 14.2245 33.4411C13.5763 31.0219 13.5908 28.5773 14.1586 26.3045C14.3343 25.6013 15.0468 25.1736 15.7501 25.3493C16.4533 25.5249 16.881 26.2375 16.7053 26.9407C16.2428 28.7922 16.2301 30.7838 16.7601 32.7617C18.4234 38.9692 24.8039 42.653 31.0114 40.9897C37.2189 39.3265 40.9027 32.9459 39.2394 26.7384C37.6033 20.6324 31.403 16.9682 25.2927 18.4331L26.5863 21.2038C26.8017 21.6653 26.7308 22.2097 26.4043 22.6005C26.0777 22.9914 25.5546 23.158 25.0622 23.0281L18.4543 21.2848Z" fill="white"/>
</svg>
