<svg xmlns="http://www.w3.org/2000/svg" width="47" height="47" viewBox="0 0 47 47">
  <g id="Group_4714" data-name="Group 4714" transform="translate(-1587 -1644)">
    <circle id="Ellipse_438" data-name="Ellipse 438" cx="23.5" cy="23.5" r="23.5" transform="translate(1587 1644)" fill="#4fbf67"/>
    <g id="money" transform="translate(1553.077 1655.999)">
      <g id="Group_4512" data-name="Group 4512" transform="translate(53.576 5.346)">
        <g id="Group_4511" data-name="Group 4511">
          <g id="Group_4510" data-name="Group 4510">
            <path id="Path_3579" data-name="Path 3579" d="M316.209,117.119h.027S316.215,117.065,316.209,117.119Z" transform="translate(-309.614 -117.095)" fill="#fff"/>
            <path id="Path_3580" data-name="Path 3580" d="M171.747,117.119h.027C171.768,117.065,171.747,117.119,171.747,117.119Z" transform="translate(-171.747 -117.095)" fill="#fff"/>
          </g>
        </g>
      </g>
      <g id="Group_4514" data-name="Group 4514" transform="translate(47.923 0.001)">
        <g id="Group_4513" data-name="Group 4513" transform="translate(0 0)">
          <path id="Path_3581" data-name="Path 3581" d="M66.758,7.051a1.074,1.074,0,0,0-.674-.48L64.6,6.231l.684-.192A1.081,1.081,0,1,0,64.7,3.958l-3.19.893a1.088,1.088,0,0,0-.343-.377A13.323,13.323,0,0,0,62.751.346a.348.348,0,0,0-.413-.338A17.108,17.108,0,0,1,58.73.369,20.806,20.806,0,0,1,55.12.008a.348.348,0,0,0-.368.515,3.577,3.577,0,0,1,.443,1.183,7.147,7.147,0,0,1-3.3-.566.348.348,0,0,0-.495.365,7.474,7.474,0,0,0,1.457,3.519H52.84A1.081,1.081,0,0,0,52.7,7.177a12.923,12.923,0,0,1-1.516,1.9,10.792,10.792,0,0,0-3.1,5.424,8.028,8.028,0,0,0,.022,3.333,6.173,6.173,0,0,0,1.266,2.545,7.794,7.794,0,0,0,3.34,2.273,12.452,12.452,0,0,0,8.345,0,7.794,7.794,0,0,0,3.34-2.273,6.172,6.172,0,0,0,1.266-2.545,8.029,8.029,0,0,0,.022-3.333,10.792,10.792,0,0,0-3.1-5.424c-.418-.465-.816-.908-1.149-1.357l4.158.955a1.081,1.081,0,0,0,1.158-1.627ZM58.723,1.058A17.419,17.419,0,0,0,61.995.775a17.868,17.868,0,0,1-1.511,3.518,1.083,1.083,0,0,0-.942.732h-.958l-.072-.154A8.029,8.029,0,0,1,57.6,1.817a.348.348,0,0,0-.413-.338,12.171,12.171,0,0,1-1.3.186,4.449,4.449,0,0,0-.232-.86A23.229,23.229,0,0,0,58.723,1.058ZM60.957,5.37V6.842a.391.391,0,1,1-.782,0V5.37a.391.391,0,1,1,.782,0ZM52.2,2.014a8.722,8.722,0,0,0,3.069.385l.684-.043c.322-.03.65-.072.979-.128a9.216,9.216,0,0,0,.891,2.8H53.733a.353.353,0,0,0-.025-.035A6.6,6.6,0,0,1,52.2,2.014Zm9.878,7.527a10.225,10.225,0,0,1,2.931,5.09,6.165,6.165,0,0,1-1.141,5.309,9.06,9.06,0,0,1-6.982,2.744,9.06,9.06,0,0,1-6.982-2.744,6.165,6.165,0,0,1-1.141-5.309A10.225,10.225,0,0,1,51.7,9.542a11.308,11.308,0,0,0,1.785-2.355h.842a.345.345,0,0,0,0-.69H52.84a.391.391,0,1,1,0-.782h6.645V6.5H55.967a.345.345,0,0,0,0,.69h3.575a1.081,1.081,0,0,0,1.186.724A16.773,16.773,0,0,0,62.078,9.542ZM61.647,5.53l3.243-.908a.391.391,0,1,1,.211.753l-1.853.519a.343.343,0,0,0-.044.016l-1.557-.358Zm4.576,2.182a.391.391,0,0,1-.469.293l-4.129-.949a1.083,1.083,0,0,0,.022-.216V6.26l4.283.984A.4.4,0,0,1,66.223,7.713Z" transform="translate(-47.923 -0.001)" fill="#fff"/>
        </g>
      </g>
      <g id="Group_4516" data-name="Group 4516" transform="translate(53.783 8.704)">
        <g id="Group_4515" data-name="Group 4515" transform="translate(0)">
          <path id="Path_3582" data-name="Path 3582" d="M181.589,196.122a.9.9,0,0,0,.9-.9v-.552a2.556,2.556,0,0,0-2.207-2.529v-.6a.9.9,0,0,0-1.794,0v.644a2.828,2.828,0,0,0,.621,5.588h.552a1.035,1.035,0,1,1,0,2.069h-.828a.76.76,0,0,1-.759-.759.9.9,0,0,0-1.794,0,2.556,2.556,0,0,0,2.207,2.529v.6a.9.9,0,0,0,1.794,0v-.644a2.828,2.828,0,0,0-.621-5.588h-.552a1.035,1.035,0,0,1,0-2.069h.828a.76.76,0,0,1,.759.759v.552A.9.9,0,0,0,181.589,196.122Zm-1.656-2.9h-.828a1.725,1.725,0,0,0,0,3.449h.552a2.138,2.138,0,0,1,.238,4.263.345.345,0,0,0-.307.343v.935a.207.207,0,0,1-.414,0v-.92a.345.345,0,0,0-.345-.345,1.865,1.865,0,0,1-1.863-1.863.207.207,0,0,1,.414,0,1.45,1.45,0,0,0,1.449,1.449h.828a1.725,1.725,0,0,0,0-3.449h-.552a2.138,2.138,0,0,1-.238-4.263.345.345,0,0,0,.307-.343v-.935a.207.207,0,0,1,.414,0v.92a.345.345,0,0,0,.345.345,1.865,1.865,0,0,1,1.863,1.863v.552a.207.207,0,1,1-.414,0v-.552A1.45,1.45,0,0,0,179.933,193.224Z" transform="translate(-176.277 -190.649)" fill="#fff"/>
        </g>
      </g>
    </g>
  </g>
</svg>
