<svg xmlns="http://www.w3.org/2000/svg" width="34" height="34" viewBox="0 0 34 34">
  <g id="report" transform="translate(-1463 -644)">
    <rect id="sdaaaaaaaaaaaaaaaaaaaaa44444444444444444444444444444444444444444444444444444456" width="34" height="34" rx="8" transform="translate(1463 644)" fill="#b39cff"/>
    <g id="solutions" transform="translate(1472 653)">
      <path id="Path_3399" data-name="Path 3399" d="M.98,8.366A7.385,7.385,0,0,1,12.588,2.307h-.95a.49.49,0,1,0,0,.98h2.3a.49.49,0,0,0,.49-.49V.5a.49.49,0,1,0-.98,0V1.72A8.364,8.364,0,0,0,1.122,12.549a.49.49,0,0,0,.849-.491A7.381,7.381,0,0,1,.98,8.366Z" fill="#fff"/>
      <path id="Path_3400" data-name="Path 3400" d="M83.89,120.757a.49.49,0,0,0-.849.491A7.384,7.384,0,0,1,72.425,131h.95a.49.49,0,0,0,0-.98h-2.3a.49.49,0,0,0-.49.49v2.3a.49.49,0,0,0,.98,0v-1.221A8.364,8.364,0,0,0,83.89,120.757Z" transform="translate(-68.28 -116.574)" fill="#fff"/>
      <path id="Path_3401" data-name="Path 3401" d="M130.813,124.427a.49.49,0,0,0-.049-.372l-.98-1.7a.49.49,0,0,0-.67-.179l-.558.322a3.554,3.554,0,0,0-.632-.366v-.643a.49.49,0,0,0-.49-.49h-1.961a.49.49,0,0,0-.49.49v.643a3.557,3.557,0,0,0-.632.366l-.558-.322a.49.49,0,0,0-.67.179l-.98,1.7a.49.49,0,0,0,.179.67l.555.321a3.623,3.623,0,0,0,0,.733l-.555.321a.49.49,0,0,0-.179.67l.98,1.7a.49.49,0,0,0,.67.179l.558-.322a3.552,3.552,0,0,0,.632.366v.643a.49.49,0,0,0,.49.49h1.961a.49.49,0,0,0,.49-.49v-.643a3.555,3.555,0,0,0,.632-.366l.558.322a.49.49,0,0,0,.67-.179l.98-1.7a.49.49,0,0,0-.179-.67l-.555-.321a3.626,3.626,0,0,0,0-.733l.555-.321A.49.49,0,0,0,130.813,124.427Zm-1.8.459a2.641,2.641,0,0,1,0,1.052.49.49,0,0,0,.235.523l.42.243-.49.849-.424-.245a.49.49,0,0,0-.571.058,2.6,2.6,0,0,1-.907.525.49.49,0,0,0-.335.465v.487h-.98v-.487a.49.49,0,0,0-.335-.465,2.6,2.6,0,0,1-.907-.525.49.49,0,0,0-.571-.058l-.424.245-.49-.849.42-.243a.49.49,0,0,0,.235-.523,2.643,2.643,0,0,1,0-1.052.49.49,0,0,0-.235-.523l-.42-.243.49-.849.424.245a.49.49,0,0,0,.571-.058,2.594,2.594,0,0,1,.907-.525.49.49,0,0,0,.335-.465v-.487h.98v.487a.49.49,0,0,0,.335.465,2.6,2.6,0,0,1,.907.525.49.49,0,0,0,.571.058l.424-.245.49.849-.42.243A.49.49,0,0,0,129.014,124.886Z" transform="translate(-118.087 -117.046)" fill="#fff"/>
      <path id="Path_3402" data-name="Path 3402" d="M202.8,201a1.8,1.8,0,1,0,1.8,1.8A1.8,1.8,0,0,0,202.8,201Zm0,2.614a.817.817,0,1,1,.817-.817A.818.818,0,0,1,202.8,203.614Z" transform="translate(-194.431 -194.431)" fill="#fff"/>
    </g>
  </g>
</svg>
