<svg xmlns="http://www.w3.org/2000/svg" width="34" height="34" viewBox="0 0 34 34">
  <g id="report2" transform="translate(-1592 -644)">
    <rect id="_4555555555555555555555555555555555555555555555555555555555555555555555555555555555555555555555555555555555555555555555555555555555556" data-name="4555555555555555555555555555555555555555555555555555555555555555555555555555555555555555555555555555555555555555555555555555555555556" width="34" height="34" rx="8" transform="translate(1592 644)" fill="#ff592d"/>
    <g id="Group_4450" data-name="Group 4450" transform="translate(0 -0.742)">
      <path id="Path_3403" data-name="Path 3403" d="M15.723,5.835l-.782-.782a.938.938,0,0,0-1.325,0L11.969,6.7V1.405A1.407,1.407,0,0,0,10.563,0H1.412A1.407,1.407,0,0,0,.007,1.405v13.18A1.407,1.407,0,0,0,1.412,15.99h9.151a1.407,1.407,0,0,0,1.405-1.405V10.868L15.723,7.16A.938.938,0,0,0,15.723,5.835Zm-5.6,5.541-1.409.658.657-1.408,3.5-3.5.773.773Zm.912,3.209a.469.469,0,0,1-.468.468H1.412a.469.469,0,0,1-.468-.468V1.405A.469.469,0,0,1,1.412.937h9.151a.469.469,0,0,1,.468.468V7.637a25.983,25.983,0,0,0-2.478,2.518L7.317,12.8a.468.468,0,0,0,.623.623l2.65-1.237c.1-.045.113-.074.442-.4ZM14.3,7.244l-.777-.777.751-.751.782.782Z" transform="translate(1601.993 653.742)" fill="#fff"/>
      <path id="Path_3404" data-name="Path 3404" d="M65.475,97.937h7a.468.468,0,1,0,0-.937h-7a.468.468,0,0,0,0,.937Z" transform="translate(1539.023 559.771)" fill="#fff"/>
      <path id="Path_3405" data-name="Path 3405" d="M65.475,177.937h5.5a.468.468,0,0,0,0-.937h-5.5a.468.468,0,0,0,0,.937Z" transform="translate(1539.023 482.27)" fill="#fff"/>
      <path id="Path_3406" data-name="Path 3406" d="M69.473,257h-4a.468.468,0,1,0,0,.937h4a.468.468,0,0,0,0-.937Z" transform="translate(1539.023 404.768)" fill="#fff"/>
    </g>
  </g>
</svg>
