<svg width="18" height="14" viewBox="0 0 18 14" fill="none" xmlns="http://www.w3.org/2000/svg">
<path fill-rule="evenodd" clip-rule="evenodd" d="M14.1254 4.86435C12.9654 4.86435 11.9634 5.65153 11.7223 6.75234L11.702 6.84468C11.6401 7.12744 11.6292 7.41848 11.6698 7.70486L11.8093 8.68893C11.7572 8.69508 11.7051 8.70143 11.653 8.70799C10.851 8.80903 10.2508 9.47176 10.2508 10.2563V12.2966C10.2508 13.0811 10.851 13.7439 11.653 13.8449C13.2944 14.0517 14.9565 14.0517 16.5978 13.8449C17.3998 13.7439 18 13.0811 18 12.2966V10.2563C18 9.47176 17.3998 8.80903 16.5978 8.70799C16.5458 8.70143 16.4937 8.69508 16.4416 8.68893L16.5811 7.70486C16.6216 7.41848 16.6107 7.12744 16.5488 6.84468L16.5286 6.75234C16.2874 5.65153 15.2855 4.86435 14.1254 4.86435ZM15.0772 8.57579L15.2263 7.52415C15.2454 7.38974 15.2402 7.25314 15.2112 7.12043L15.1909 7.02809C15.084 6.54001 14.6398 6.19099 14.1254 6.19099C13.6111 6.19099 13.1668 6.54001 13.0599 7.02809L13.0397 7.12043C13.0106 7.25314 13.0055 7.38974 13.0245 7.52415L13.1736 8.57579C13.8077 8.54525 14.4431 8.54525 15.0772 8.57579Z" fill="#6441A5"/>
<path d="M16.1235 3.74196C16.1468 3.89052 15.977 3.99785 15.8385 3.93048C15.32 3.67817 14.7368 3.53771 14.1254 3.53771C12.3197 3.53771 10.76 4.76304 10.3846 6.47658L10.3644 6.56892C10.2923 6.89829 10.2653 7.23499 10.284 7.5703C10.2916 7.70735 10.225 7.83877 10.1106 7.9195C9.36196 8.44773 8.88334 9.30344 8.88334 10.2563V11.5111C8.88334 11.6566 8.76262 11.775 8.61268 11.7759C6.90846 11.7862 5.20392 11.7324 3.50293 11.6143L2.12266 11.5185C1.2397 11.4573 0.511423 10.824 0.352318 9.97925C-0.0375592 7.90918 -0.104305 5.79399 0.154318 3.70466L0.402734 1.69779C0.522648 0.729051 1.36979 0 2.37554 0H4.46469C5.36936 0 6.10274 0.711467 6.10274 1.58911C6.10274 1.6181 6.12696 1.6416 6.15685 1.6416H14.1001C15.067 1.6416 15.8906 2.3232 16.043 3.24953L16.1014 3.60457C16.109 3.65034 16.1163 3.69614 16.1235 3.74196Z" fill="#6441A5"/>
</svg>
