<svg width="24" height="24" viewBox="0 0 24 24" fill="none" xmlns="http://www.w3.org/2000/svg">
<path d="M20.6203 19.0125H20.5829L20.5453 19.0078C20.4188 18.9937 20.2922 18.9656 20.1703 18.9141L17.5125 17.9719L17.4938 17.9625C17.4375 17.9391 17.3766 17.925 17.311 17.925C17.25 17.925 17.1938 17.9344 17.1375 17.9578C17.0766 17.9813 16.4907 18.2016 15.8813 18.3703C15.5485 18.4594 14.3953 18.7594 13.4719 18.7594C11.1047 18.7594 8.89222 17.85 7.24222 16.2C5.60629 14.5641 4.70629 12.3938 4.70629 10.0828C4.70629 9.49219 4.77191 8.89687 4.89847 8.32031C5.31098 6.41719 6.40316 4.6875 7.96879 3.44531C9.54848 2.18906 11.5547 1.5 13.6079 1.5C16.0547 1.5 18.3375 2.4375 20.0297 4.13437C21.6328 5.74219 22.5094 7.85156 22.5 10.0828C22.5 11.7422 22.0079 13.35 21.0797 14.7328L21.0563 14.7703C21.0375 14.7938 21.0235 14.8172 21.0047 14.8406C20.9813 14.8781 20.9672 14.9109 20.9579 14.9344L21.6938 17.5547C21.7219 17.6437 21.736 17.7375 21.7453 17.8312V17.8875C21.7453 18.5063 21.2391 19.0125 20.6203 19.0125ZM18.0469 16.5703L20.0578 17.2828L19.4813 15.225C19.3875 14.8828 19.4625 14.4984 19.711 14.0766L19.7157 14.0672C19.7579 14.0016 19.8 13.9359 19.8469 13.8703C20.6016 12.7406 21 11.4281 21 10.0734C21.0047 8.24531 20.2829 6.51094 18.9657 5.18906C17.5547 3.77812 15.6516 3 13.6079 3C10.1157 3 7.0641 5.37188 6.35629 8.63906C6.25316 9.1125 6.2016 9.6 6.2016 10.0828C6.2016 14.0391 9.45941 17.2594 13.4672 17.2594C14.0532 17.2594 14.9204 17.0813 15.4829 16.9266C16.036 16.7766 16.5844 16.5703 16.6079 16.5609C16.8329 16.4766 17.0672 16.4344 17.311 16.4344C17.5594 16.4297 17.8078 16.4766 18.0469 16.5703Z" fill="#373737"/>
<path d="M3.3704 22.5C3.11259 22.5 2.86415 22.4109 2.66259 22.2516L2.64853 22.2422C2.33446 21.9797 2.18915 21.5625 2.26884 21.1641C2.40478 20.4656 2.68603 18.9984 2.78915 18.4547C2.78915 18.4547 2.78915 18.4547 2.78915 18.45C2.00634 17.2875 1.56571 15.9281 1.50478 14.5312C1.44384 13.1297 1.77665 11.7422 2.45634 10.5141C2.6579 10.1531 3.11259 10.0219 3.47821 10.2234C3.83915 10.425 3.9704 10.8797 3.76884 11.2453C2.64853 13.2609 2.74696 15.7031 4.03603 17.6203L4.04071 17.625C4.21415 17.8875 4.37821 18.2016 4.29853 18.5719C4.27978 18.6656 4.06415 19.7766 3.87196 20.7844L5.87353 20.0016C6.23446 19.8609 6.6329 19.8656 6.99384 20.0156C7.84696 20.3484 8.73759 20.5219 9.56259 20.5219C9.56728 20.5219 9.56728 20.5219 9.57196 20.5219C10.7532 20.5219 11.9204 20.2078 12.9423 19.6172C13.2985 19.4109 13.7579 19.5328 13.9688 19.8891C14.1751 20.2453 14.0532 20.7047 13.697 20.9156C12.4454 21.6422 11.0204 22.0219 9.57665 22.0219C9.57196 22.0219 9.57196 22.0219 9.56728 22.0219C8.55478 22.0219 7.47665 21.8109 6.4454 21.4078L6.42665 21.3984L3.80634 22.425C3.67509 22.4813 3.53446 22.5094 3.38915 22.5094C3.37509 22.5 3.37509 22.5 3.3704 22.5Z" fill="#373737"/>
</svg>
