<svg width="24" height="24" viewBox="0 0 24 24" fill="none" xmlns="http://www.w3.org/2000/svg">
<path fill-rule="evenodd" clip-rule="evenodd" d="M4.2336 5.07462C3.87159 5.43125 3.75 5.7435 3.75 6C3.75 6.2565 3.87159 6.56875 4.2336 6.92538C4.59826 7.28461 5.16441 7.64264 5.9245 7.95934C7.44141 8.59139 9.58899 9 12 9C14.411 9 16.5586 8.59139 18.0755 7.95934C18.8356 7.64264 19.4017 7.28461 19.7664 6.92538C20.1284 6.56875 20.25 6.2565 20.25 6C20.25 5.7435 20.1284 5.43125 19.7664 5.07462C19.4017 4.71539 18.8356 4.35736 18.0755 4.04066C16.5586 3.40861 14.411 3 12 3C9.58899 3 7.44141 3.40861 5.9245 4.04066C5.16441 4.35736 4.59826 4.71539 4.2336 5.07462ZM21.7486 5.91782C21.7228 5.17349 21.3485 4.5276 20.8191 4.00604C20.2729 3.46798 19.521 3.01795 18.6524 2.65604C16.912 1.93086 14.5596 1.5 12 1.5C9.44045 1.5 7.08802 1.93086 5.34758 2.65604C4.47899 3.01795 3.72712 3.46798 3.18093 4.00604C2.65149 4.5276 2.27721 5.17349 2.25142 5.91782C2.25048 5.93322 2.25 5.94874 2.25 5.96438V18.0356C2.25 18.8125 2.63483 19.4827 3.18383 20.0183C3.73042 20.5514 4.48241 20.997 5.35062 21.3553C7.09055 22.0733 9.4421 22.5 12 22.5C14.5579 22.5 16.9094 22.0733 18.6494 21.3553C19.5176 20.997 20.2696 20.5514 20.8162 20.0183C21.3652 19.4827 21.75 18.8125 21.75 18.0356V5.96438C21.75 5.94874 21.7495 5.93322 21.7486 5.91782ZM20.25 8.47222C19.792 8.80446 19.2498 9.09505 18.6524 9.34396C16.912 10.0691 14.5596 10.5 12 10.5C9.44045 10.5 7.08802 10.0691 5.34758 9.34396C4.7502 9.09505 4.20802 8.80446 3.75 8.47222V10.0312C3.75 10.2876 3.87158 10.5998 4.23377 10.9565C4.59858 11.3157 5.16492 11.6738 5.92515 11.9905C7.44234 12.6226 9.58994 13.0312 12 13.0312C14.4101 13.0312 16.5577 12.6226 18.0748 11.9905C18.8351 11.6738 19.4014 11.3157 19.7662 10.9565C20.1284 10.5998 20.25 10.2876 20.25 10.0312V8.47222ZM20.25 12.5031C19.7918 12.8355 19.2494 13.1262 18.6517 13.3752C16.9111 14.1003 14.5587 14.5312 12 14.5312C9.44131 14.5312 7.08891 14.1003 5.34829 13.3752C4.75064 13.1262 4.20821 12.8355 3.75 12.5031V14.0625C3.75 14.3188 3.87158 14.6311 4.23377 14.9877C4.59858 15.347 5.16492 15.7051 5.92515 16.0218C7.44234 16.6539 9.58994 17.0625 12 17.0625C14.4101 17.0625 16.5577 16.6539 18.0748 16.0218C18.8351 15.7051 19.4014 15.347 19.7662 14.9877C20.1284 14.6311 20.25 14.3188 20.25 14.0625V12.5031ZM20.25 16.5344C19.7918 16.8667 19.2494 17.1574 18.6517 17.4064C16.9111 18.1316 14.5587 18.5625 12 18.5625C9.44131 18.5625 7.08891 18.1316 5.34829 17.4064C4.75064 17.1574 4.20821 16.8667 3.75 16.5344V18.0356C3.75 18.2844 3.86908 18.5912 4.23121 18.9445C4.59575 19.3001 5.16212 19.6548 5.92281 19.9687C7.4407 20.5951 9.58915 21 12 21C14.4108 21 16.5593 20.5951 18.0772 19.9687C18.8379 19.6548 19.4042 19.3001 19.7688 18.9445C20.1309 18.5912 20.25 18.2844 20.25 18.0356V16.5344Z" fill="#373737"/>
</svg>
