<svg width="24" height="24" viewBox="0 0 24 24" fill="none" xmlns="http://www.w3.org/2000/svg">
<path fill-rule="evenodd" clip-rule="evenodd" d="M14.4645 18L14.2322 17.7677L12.4645 16L16 12.4645L17.7678 14.2323L18.5 14.9645L19.2322 14.2323L20.8901 12.5743C20.8089 12.1539 20.6676 11.8419 20.4218 11.5934L20.4066 11.5782C19.8221 11 18.886 11 17.0137 11H16.8241C14.1262 11 12.7772 11 11.7547 10.2986C11.6556 10.2307 11.5596 10.1583 11.4671 10.0817L12.7421 8.54084C12.7884 8.57914 12.8364 8.61533 12.8859 8.64931C13.0245 8.74437 13.2564 8.85619 13.8784 8.92416C14.547 8.99723 15.4311 9 16.8241 9H17.0137L17.1217 8.99999C17.9639 8.99982 18.7824 8.99966 19.4579 9.08988C19.9494 9.15554 20.4861 9.28204 21 9.55675V8C21 6.89543 20.1046 6 19 6H11.6547C11.8646 6.71304 12.033 7.23965 12.2052 7.66209C12.4414 8.24149 12.6127 8.4337 12.7421 8.54084L11.4671 10.0817C10.5118 9.29115 10.1412 7.9941 9.4 5.4C9.21471 4.75148 9.12206 4.42721 8.88324 4.22958C8.86009 4.21043 8.8361 4.19233 8.81133 4.17534C8.55569 4 8.21845 4 7.54398 4H5C3.89543 4 3 4.89543 3 6V16C3 17.1046 3.89543 18 5 18H14.4645Z" fill="#5C5ACB"/>
<path d="M16.0001 21L21 16M20.9999 21L16 16" stroke="#5C5ACB" stroke-width="2" stroke-linecap="square"/>
</svg>
