<svg width="23" height="19" viewBox="0 0 23 19" fill="none" xmlns="http://www.w3.org/2000/svg">
<path fill-rule="evenodd" clip-rule="evenodd" d="M11.6896 5.46L15.4196 9.18C15.5778 9.33761 15.6667 9.55171 15.6667 9.775C15.6667 9.99829 15.5778 10.2124 15.4196 10.37C15.087 10.6887 14.5623 10.6887 14.2296 10.37L11.9396 8.07L11.9396 18.16C11.9396 18.6239 11.5636 19 11.0996 19C10.6357 19 10.2596 18.6239 10.2596 18.16L10.2596 8.07L7.96963 10.37C7.637 10.6887 7.11227 10.6887 6.77963 10.37C6.62147 10.2124 6.53257 9.99829 6.53257 9.775C6.53257 9.55171 6.62147 9.33761 6.77963 9.18L10.5096 5.46C10.6636 5.29911 10.877 5.20869 11.0996 5.21C11.3228 5.20625 11.5371 5.29707 11.6896 5.46ZM5.87963 13.58L4.66962 13.58C2.15338 13.5253 0.154973 11.4464 0.199626 8.93L0.199626 5.12C0.154974 2.60356 2.15338 0.524674 4.66963 0.469996L17.5296 0.549997C20.0459 0.604675 22.0443 2.68356 21.9996 5.2L21.9996 9.01C22.0291 10.2238 21.5744 11.3995 20.7357 12.2775C19.8971 13.1556 18.7435 13.6638 17.5296 13.69L16.3196 13.69C15.8557 13.69 15.4796 13.3139 15.4796 12.85C15.4796 12.3861 15.8557 12.01 16.3196 12.01L17.5296 12.01C18.299 11.9866 19.0269 11.6563 19.5511 11.0926C20.0753 10.529 20.3521 9.77902 20.3196 9.01L20.3196 5.23C20.3521 4.46098 20.0753 3.71098 19.5511 3.14735C19.027 2.58372 18.299 2.25337 17.5296 2.23L4.66963 2.09C3.90028 2.11337 3.1723 2.44372 2.64813 3.00735C2.12395 3.57098 1.8472 4.32098 1.87963 5.09L1.87963 8.9C1.8472 9.66901 2.12395 10.419 2.64813 10.9826C3.1723 11.5463 3.90028 11.8766 4.66962 11.9L5.87963 11.9C6.34355 11.9 6.71963 12.2761 6.71963 12.74C6.71963 13.2039 6.34355 13.58 5.87963 13.58Z" fill="#6C6D7E"/>
</svg>
