<svg width="22" height="22" viewBox="0 0 22 22" fill="none" xmlns="http://www.w3.org/2000/svg">
<path d="M19.4234 14.5625C19.3437 14.4735 19.2734 14.3938 19.2218 14.3328C19.0625 14.1453 18.8421 14.0282 18.5984 14.0047C18.35 13.9813 18.1062 14.0516 17.914 14.211C17.8671 14.2485 17.825 14.2907 17.7875 14.3375C17.7312 14.4032 17.6562 14.4875 17.5671 14.586C16.8453 15.3922 15.5 16.9016 15.5 18.4625C15.5 20.1406 16.8453 21.5047 18.5 21.5047C20.1546 21.5047 21.5 20.1406 21.5 18.4625C21.5 16.8875 20.15 15.3735 19.4234 14.5625ZM18.5 20C17.675 20 17 19.3063 17 18.4578C17 17.5672 17.9187 16.4516 18.5046 15.786C19.0906 16.4516 20 17.5672 20 18.4578C20 19.3063 19.325 20 18.5 20Z" fill="#373737"/>
<path d="M16.9109 13.7703H16.925C17.2062 13.7703 17.4734 13.6625 17.6703 13.461C17.8718 13.2594 17.9796 12.9969 17.9796 12.7157C17.9796 12.4344 17.8671 12.1578 17.6656 11.961L6.82339 1.20784C5.87651 0.256279 4.32964 0.251591 3.37808 1.20315L3.13433 1.4469C2.18277 2.39378 2.17808 3.94065 3.12964 4.89222L5.07964 6.84222L1.10933 10.8078C0.720265 11.1969 0.50464 11.7125 0.499953 12.2657C0.495265 12.8188 0.71089 13.3344 1.09995 13.7235C1.10933 13.7328 1.1187 13.7422 1.13277 13.7563L7.28277 19.6625C7.68589 20.0469 8.19683 20.2391 8.71245 20.2391C9.22808 20.2391 9.74839 20.0422 10.1468 19.6578L10.8078 19.0203C12.7625 17.1313 15.7062 14.2813 16.0906 13.8969C16.114 13.8735 16.3062 13.7703 16.9109 13.7703ZM4.18901 3.83753C3.82339 3.46722 3.82339 2.87659 4.18901 2.51097L4.43277 2.26722C4.79839 1.90159 5.3937 1.90159 5.75933 2.2719L7.71402 4.21253L6.13433 5.79222L4.18901 3.83753ZM15.0359 12.8235C14.689 13.1703 11.6093 16.1516 9.76714 17.9375L9.1062 18.575C8.88589 18.786 8.5437 18.786 8.32339 18.5797L2.17339 12.6735L2.16402 12.6641C2.0562 12.5563 1.99995 12.4157 1.99995 12.2657C1.99995 12.1157 2.06089 11.975 2.1687 11.8672L6.13902 7.90628L8.78277 5.26253L15.9406 12.3641C15.5562 12.4532 15.2562 12.6032 15.0359 12.8235Z" fill="#373737"/>
</svg>
