<svg width="21" height="18" viewBox="0 0 21 18" fill="none" xmlns="http://www.w3.org/2000/svg">
<path fill-rule="evenodd" clip-rule="evenodd" d="M19.46 7.23C19.4704 7.15369 19.4704 7.07631 19.46 7C19.46 5.067 17.893 3.5 15.96 3.5H11.5C10.9477 3.5 10.5 3.05228 10.5 2.5C10.5 1.83696 10.2366 1.20107 9.76777 0.732233C9.29893 0.263392 8.66304 0 8 0H3.75C1.67893 0 0 1.67893 0 3.75V15.02C0.0163902 16.5287 1.24123 17.7446 2.75 17.75H15.41C16.5438 17.7449 17.5592 17.0468 17.97 15.99L20.06 9.49C20.2048 8.68498 19.985 7.85721 19.46 7.23ZM1.5 3.75C1.5 2.50736 2.50736 1.5 3.75 1.5H8C8.55229 1.5 9 1.94772 9 2.5C9.00548 3.87844 10.1216 4.99452 11.5 5H16C16.8308 4.99989 17.5751 5.51335 17.87 6.29C17.697 6.27495 17.523 6.27495 17.35 6.29H5.15C3.99784 6.29029 2.96802 7.00878 2.57 8.09L1.5 10.87V3.75ZM15.41 16.25C15.9167 16.2494 16.372 15.9405 16.56 15.47L18.64 9.12C18.6779 8.78306 18.5727 8.44568 18.35 8.19C18.1009 7.89893 17.7329 7.73701 17.35 7.75H5.15C4.62408 7.75028 4.15365 8.07719 3.97 8.57L1.5 15.12C1.56647 15.7609 2.10571 16.2483 2.75 16.25H15.41Z" fill="#6C6D7E"/>
</svg>
