<svg width="20" height="18" viewBox="0 0 20 18" fill="none" xmlns="http://www.w3.org/2000/svg">
<path fill-rule="evenodd" clip-rule="evenodd" d="M16.5177 0H10.5977C8.9408 0 7.59766 1.34315 7.59766 3V14.28C7.59766 15.9369 8.9408 17.28 10.5977 17.28H16.5177C18.1745 17.28 19.5177 15.9369 19.5177 14.28V3C19.5177 1.34315 18.1745 0 16.5177 0ZM9.13766 8H9.95766C10.2338 8 10.4577 8.22386 10.4577 8.5V8.82C10.4577 9.09614 10.2338 9.32 9.95766 9.32H9.13766V8ZM16.5177 15.8C17.3461 15.8 18.0177 15.1284 18.0177 14.3V3C18.0177 2.17157 17.3461 1.5 16.5177 1.5H10.5977C9.76923 1.5 9.09765 2.17157 9.09765 3V6.48H9.91765C11.0222 6.48 11.9177 7.37543 11.9177 8.48V8.8C11.9177 9.90457 11.0222 10.8 9.91765 10.8H9.09765V14.3C9.09765 15.1284 9.76923 15.8 10.5977 15.8H16.5177Z" fill="#6C6D7E"/>
<path fill-rule="evenodd" clip-rule="evenodd" d="M0.00771985 3.42C-0.11276 1.68248 1.19112 0.173187 2.92772 0.0400009C4.65648 0.188624 5.94452 1.6995 5.81772 3.43V12.7C5.82907 13.181 5.69677 13.6545 5.43772 14.06L3.56772 16.95C3.43526 17.1875 3.18464 17.3347 2.91272 17.3347C2.6408 17.3347 2.39018 17.1875 2.25772 16.95L0.38772 14.06C0.134545 13.6519 0.00274391 13.1802 0.00771985 12.7V3.42ZM4.16772 13.24C4.26817 13.078 4.32022 12.8906 4.31772 12.7L4.33772 3.42C4.34772 2.4 3.69772 1.54 2.92772 1.54C2.16772 1.54 1.51772 2.42 1.51772 3.42V12.7C1.5092 12.8887 1.55427 13.0759 1.64772 13.24L2.90772 15.24L4.16772 13.24Z" fill="#6C6D7E"/>
<path d="M2.91797 2.18C2.50376 2.18 2.16797 2.51579 2.16797 2.93V6.39C2.16797 6.80421 2.50376 7.14 2.91797 7.14C3.33218 7.14 3.66797 6.80421 3.66797 6.39V2.93C3.67069 2.73027 3.59254 2.53792 3.4513 2.39667C3.31005 2.25543 3.1177 2.17728 2.91797 2.18Z" fill="#6C6D7E"/>
<path d="M16.2973 3.14H12.9473C12.5331 3.14 12.1973 3.47579 12.1973 3.89C12.1973 4.30421 12.5331 4.64 12.9473 4.64H16.2973C16.7115 4.64 17.0473 4.30421 17.0473 3.89C17.0473 3.47579 16.7115 3.14 16.2973 3.14V3.14Z" fill="#6C6D7E"/>
</svg>
