<svg width="20" height="20" viewBox="0 0 20 20" fill="none" xmlns="http://www.w3.org/2000/svg">
<path d="M19.7499 9.71602C19.7436 9.59905 19.696 9.48809 19.6157 9.40281C19.5354 9.31752 19.4275 9.26342 19.3111 9.25008L18.1093 9.05555C18.0552 9.04668 18.0055 9.02058 17.9674 8.98113C17.9294 8.94168 17.9052 8.891 17.8983 8.83664C17.8754 8.68899 17.8514 8.53571 17.8186 8.39039C17.8081 8.33754 17.8143 8.2827 17.8364 8.23354C17.8585 8.18438 17.8954 8.14335 17.9419 8.11617L19.0097 7.52321C19.1158 7.46916 19.1982 7.37802 19.2414 7.26713C19.2847 7.15625 19.2856 7.03334 19.2441 6.9218L19.0589 6.41086C19.0183 6.29894 18.9379 6.20593 18.833 6.14962C18.7281 6.09332 18.6061 6.07768 18.4904 6.10571L17.2927 6.34008C17.2391 6.34965 17.1839 6.34207 17.135 6.31842C17.086 6.29477 17.0457 6.25625 17.0199 6.20836C16.95 6.07758 16.8741 5.94446 16.7949 5.81367C16.7661 5.76708 16.7526 5.71266 16.7563 5.65802C16.76 5.60339 16.7807 5.55128 16.8155 5.50899L17.6124 4.58836C17.6933 4.50145 17.7398 4.38803 17.7432 4.26931C17.7466 4.15059 17.7066 4.03472 17.6307 3.94336L17.2829 3.52571C17.2072 3.43404 17.1002 3.3737 16.9826 3.35638C16.865 3.33906 16.7452 3.36599 16.6463 3.43196L15.5977 4.06149C15.5512 4.08934 15.497 4.10151 15.4431 4.09619C15.3891 4.09087 15.3383 4.06835 15.2982 4.03196C15.1824 3.93024 15.0638 3.83227 14.9527 3.7418C14.9101 3.70815 14.8793 3.66179 14.8648 3.60944C14.8503 3.5571 14.8528 3.5015 14.8721 3.45071L15.3061 2.30696C15.3534 2.19782 15.3589 2.07513 15.3217 1.96218C15.2845 1.84924 15.207 1.75391 15.1041 1.6943L14.6311 1.41821C14.5281 1.35882 14.4069 1.33952 14.2905 1.36399C14.1742 1.38847 14.071 1.45501 14.0007 1.55086L13.2343 2.51367C13.2067 2.55552 13.1654 2.58646 13.1175 2.60118C13.0696 2.61589 13.0181 2.61346 12.9718 2.5943C12.9432 2.58258 12.7013 2.48368 12.5133 2.42086C12.4618 2.40406 12.4169 2.3712 12.3854 2.32709C12.3538 2.28298 12.3372 2.22993 12.338 2.17571L12.3563 0.953675C12.3628 0.83435 12.3256 0.716736 12.2517 0.622858C12.1777 0.52898 12.0721 0.465276 11.9546 0.443675L11.4179 0.349925C11.3009 0.329722 11.1806 0.35266 11.0793 0.414477C10.978 0.476293 10.9026 0.572784 10.8671 0.686019L10.4686 1.84899C10.4505 1.90061 10.4164 1.94508 10.3712 1.97587C10.3259 2.00667 10.2721 2.02216 10.2174 2.02008H9.76035C9.70611 2.0212 9.65289 2.00517 9.60829 1.97428C9.56368 1.94339 9.52996 1.89922 9.51192 1.84805L9.11535 0.691644C9.08046 0.577582 9.00519 0.48015 8.90364 0.417593C8.80208 0.355036 8.6812 0.331645 8.56363 0.3518L8.02598 0.44555C7.90919 0.466981 7.80415 0.530061 7.73036 0.623079C7.65657 0.716097 7.61903 0.832733 7.62473 0.951331L7.64348 2.17758C7.64385 2.23262 7.62644 2.2863 7.59384 2.33065C7.56124 2.37499 7.51519 2.40762 7.46254 2.42367C7.3552 2.46539 7.12223 2.55446 7.01629 2.59383C6.92254 2.62758 6.82035 2.59055 6.73785 2.49539L5.97567 1.55789C5.90574 1.46146 5.80262 1.39427 5.68615 1.36927C5.56968 1.34426 5.44808 1.36319 5.34473 1.42242L4.87317 1.69571C4.76912 1.75542 4.69086 1.85154 4.65347 1.96553C4.61608 2.07951 4.62221 2.20331 4.67067 2.31305L5.10426 3.45399C5.12318 3.50488 5.12566 3.56043 5.11137 3.61281C5.09707 3.6652 5.06672 3.71178 5.02457 3.74602C4.91067 3.83977 4.79395 3.93352 4.6777 4.03758C4.63778 4.07369 4.58736 4.09609 4.5338 4.10148C4.48024 4.10688 4.42636 4.095 4.38004 4.06758L3.34364 3.42586C3.24412 3.36113 3.1244 3.33493 3.00694 3.35219C2.88948 3.36945 2.78235 3.42898 2.70567 3.51961L2.35926 3.93633C2.28231 4.02706 2.24154 4.14299 2.24474 4.26191C2.24794 4.38083 2.29489 4.4944 2.3766 4.58086L3.17723 5.50055C3.21276 5.54199 3.234 5.59378 3.2378 5.64823C3.2416 5.70269 3.22775 5.75692 3.19832 5.80289C3.11817 5.93039 3.04176 6.06446 2.97239 6.19852C2.94643 6.24674 2.90587 6.28551 2.85653 6.30926C2.80718 6.33301 2.75158 6.34051 2.6977 6.33071L1.50192 6.09961C1.38614 6.07168 1.26413 6.08734 1.15917 6.14363C1.05421 6.19991 0.973647 6.29287 0.932855 6.40477L0.745355 6.91477C0.703911 7.02645 0.70488 7.14946 0.748078 7.26048C0.791276 7.3715 0.8737 7.46281 0.97973 7.51711L2.04754 8.11008C2.09556 8.13658 2.13365 8.17799 2.15606 8.22806C2.17847 8.27812 2.18398 8.33411 2.17176 8.38758L2.16051 8.44711C2.13614 8.57789 2.11364 8.70164 2.09207 8.83336C2.08462 8.88703 2.06038 8.93697 2.02283 8.97604C1.98529 9.0151 1.93634 9.04129 1.88301 9.05086L0.678792 9.24539C0.561026 9.25985 0.45255 9.31668 0.373621 9.40527C0.294693 9.49386 0.25071 9.60815 0.249886 9.7268V10.2696C0.2492 10.3887 0.292732 10.5038 0.372054 10.5927C0.451375 10.6815 0.560843 10.7378 0.679261 10.7505L1.88301 10.9446C1.9371 10.9534 1.98689 10.9795 2.02492 11.019C2.06294 11.0584 2.08716 11.1091 2.09395 11.1635C2.11692 11.3116 2.14082 11.4645 2.17364 11.6098C2.18421 11.6626 2.17801 11.7175 2.15591 11.7666C2.13381 11.8158 2.09691 11.8568 2.05035 11.884L0.983011 12.4779C0.876981 12.5319 0.794516 12.6231 0.751301 12.734C0.708087 12.8449 0.707138 12.9678 0.748636 13.0793L0.936136 13.5902C0.976834 13.7021 1.05731 13.795 1.16219 13.8513C1.26707 13.9076 1.38902 13.9233 1.50473 13.8954L2.70239 13.6634C2.75595 13.6536 2.81121 13.6612 2.86023 13.6848C2.90925 13.7085 2.9495 13.7471 2.9752 13.7951C3.04551 13.9263 3.12098 14.059 3.2002 14.1898C3.22911 14.2363 3.24267 14.2908 3.23897 14.3454C3.23527 14.4001 3.21449 14.4522 3.17957 14.4945L2.3827 15.4146C2.3008 15.5009 2.25322 15.6141 2.2489 15.7329C2.24459 15.8518 2.28383 15.9681 2.35926 16.0601L2.7066 16.4777C2.78221 16.5695 2.8892 16.6299 3.00683 16.6472C3.12445 16.6645 3.24432 16.6376 3.34317 16.5715L4.39176 15.942C4.43825 15.9141 4.49247 15.9019 4.5464 15.9073C4.60034 15.9126 4.65113 15.9351 4.69129 15.9715C4.80754 16.0732 4.92567 16.1712 5.03676 16.2616C5.07936 16.2953 5.11017 16.3417 5.12474 16.394C5.13932 16.4463 5.13691 16.5019 5.11785 16.5527L4.68332 17.6965C4.63605 17.8056 4.63051 17.9283 4.66776 18.0413C4.70501 18.1542 4.78244 18.2495 4.88535 18.3091L5.35926 18.5829C5.46219 18.6423 5.58343 18.6617 5.69976 18.6373C5.81609 18.6129 5.91934 18.5465 5.98973 18.4507L6.76551 17.4968C6.83114 17.4157 6.93426 17.3796 7.01067 17.4105C7.17379 17.478 7.28301 17.516 7.4766 17.5807C7.52817 17.5976 7.57302 17.6304 7.60463 17.6745C7.63625 17.7186 7.65297 17.7716 7.65239 17.8259L7.63364 19.047C7.62731 19.1662 7.66457 19.2837 7.73849 19.3776C7.8124 19.4714 7.91791 19.5352 8.03535 19.557L8.57207 19.6507C8.68904 19.6711 8.80943 19.6483 8.91078 19.5864C9.01213 19.5246 9.08751 19.428 9.12285 19.3146L9.52129 18.1535C9.53932 18.1019 9.57347 18.0573 9.6187 18.0265C9.66393 17.9957 9.71786 17.9803 9.77254 17.9824H10.2296C10.2838 17.9812 10.3371 17.9972 10.3817 18.0281C10.4263 18.059 10.46 18.1032 10.478 18.1545L10.875 19.3109C10.9058 19.4113 10.9679 19.4991 11.0523 19.5617C11.1366 19.6242 11.2388 19.658 11.3438 19.6582C11.3718 19.6583 11.3997 19.6558 11.4272 19.6507L11.9649 19.557C12.0817 19.5355 12.1867 19.4724 12.2605 19.3794C12.3343 19.2864 12.3718 19.1698 12.3661 19.0512L12.3474 17.8249C12.347 17.7709 12.3639 17.7182 12.3955 17.6743C12.4271 17.6305 12.4718 17.5979 12.5232 17.5812C12.7032 17.5207 12.8297 17.472 12.9408 17.4288L12.9689 17.418C13.1143 17.3679 13.1846 17.4288 13.2254 17.4795L14.0105 18.4465C14.0809 18.5421 14.184 18.6085 14.3003 18.6329C14.4165 18.6573 14.5376 18.638 14.6405 18.5787L15.1125 18.3054C15.2158 18.2458 15.2935 18.1502 15.3307 18.0369C15.368 17.9236 15.3622 17.8006 15.3146 17.6913L14.8814 16.5504C14.8623 16.4996 14.8597 16.444 14.8739 16.3916C14.8881 16.3392 14.9185 16.2926 14.9607 16.2584C15.0746 16.1646 15.1913 16.0709 15.3075 15.9668C15.3477 15.9306 15.3984 15.9082 15.4523 15.903C15.5061 15.8977 15.5602 15.9099 15.6066 15.9377L16.6561 16.5659C16.7556 16.6307 16.8754 16.657 16.9929 16.6397C17.1103 16.6224 17.2175 16.5628 17.2941 16.4721L17.641 16.0549C17.7179 15.9642 17.7587 15.8483 17.7555 15.7293C17.7523 15.6104 17.7054 15.4969 17.6236 15.4104L16.8239 14.4884C16.7884 14.4469 16.7672 14.3951 16.7634 14.3407C16.7596 14.2862 16.7734 14.232 16.8029 14.186C16.883 14.059 16.9594 13.9249 17.0288 13.7904C17.0549 13.7423 17.0954 13.7036 17.1447 13.6799C17.1941 13.6561 17.2496 13.6485 17.3035 13.6582L18.4979 13.8912C18.6136 13.9191 18.7356 13.9034 18.8406 13.8472C18.9456 13.7909 19.0261 13.6979 19.0669 13.586L19.2521 13.076C19.2935 12.9644 19.2925 12.8415 19.2493 12.7305C19.2061 12.6196 19.1237 12.5284 19.0177 12.4741L17.9489 11.8802C17.9016 11.8535 17.8641 11.8122 17.8421 11.7624C17.8201 11.7127 17.8146 11.6572 17.8266 11.6041L17.8379 11.5446C17.8622 11.4138 17.8847 11.2901 17.9063 11.1584C17.9137 11.1047 17.938 11.0548 17.9755 11.0157C18.0131 10.9766 18.062 10.9504 18.1154 10.9409L19.3196 10.7468C19.4376 10.7326 19.5465 10.6758 19.6257 10.5871C19.7049 10.4984 19.749 10.3838 19.7499 10.2649V9.71602ZM6.51004 14.1223C6.45163 14.2238 6.36995 14.3101 6.27171 14.374C6.17347 14.4378 6.06149 14.4775 5.94495 14.4897C5.82841 14.5018 5.71064 14.4862 5.60133 14.444C5.49202 14.4018 5.39428 14.3343 5.31614 14.247C4.26011 13.0793 3.67703 11.5601 3.68067 9.98573C3.68431 8.41138 4.27441 6.89487 5.33582 5.73211C5.41437 5.64484 5.51253 5.57747 5.62222 5.53557C5.73191 5.49367 5.84998 5.47843 5.96671 5.49111C6.08344 5.50379 6.19549 5.54403 6.29362 5.6085C6.39175 5.67298 6.47316 5.75985 6.53114 5.86196L8.67098 9.62836C8.73523 9.74069 8.76904 9.86786 8.76904 9.99727C8.76904 10.1267 8.73523 10.2538 8.67098 10.3662L6.51004 14.1223ZM9.99988 16.3338C9.55382 16.3339 9.10899 16.2868 8.67285 16.1932C8.55924 16.1678 8.4532 16.116 8.36333 16.042C8.27346 15.968 8.20229 15.8739 8.15559 15.7672C8.10889 15.6606 8.08797 15.5444 8.09452 15.4282C8.10108 15.312 8.13493 15.1989 8.19332 15.0982L10.3496 11.3482C10.4144 11.2352 10.508 11.1413 10.6207 11.0761C10.7335 11.0108 10.8615 10.9764 10.9918 10.9765H15.3108C15.4272 10.9763 15.5419 11.0035 15.6458 11.056C15.7496 11.1084 15.8397 11.1846 15.9086 11.2783C15.9775 11.372 16.0234 11.4807 16.0425 11.5954C16.0617 11.7102 16.0535 11.8278 16.0186 11.9388C15.1988 14.4851 12.8124 16.3338 9.99988 16.3338ZM10.3519 8.65102L8.21864 4.89446C8.16082 4.79358 8.12755 4.68052 8.12152 4.56441C8.11549 4.4483 8.13686 4.3324 8.1839 4.22607C8.23095 4.11975 8.30235 4.02598 8.39234 3.95236C8.48233 3.87874 8.58838 3.82732 8.70192 3.80227C9.12871 3.71232 9.56371 3.66708 9.99988 3.66727C12.8124 3.66727 15.1988 5.51602 16.0172 8.06367C16.0521 8.17468 16.0602 8.29233 16.0411 8.40709C16.022 8.52185 15.9761 8.6305 15.9072 8.72422C15.8383 8.81794 15.7482 8.8941 15.6444 8.94654C15.5405 8.99897 15.4258 9.0262 15.3094 9.02602H10.9969C10.8658 9.02628 10.737 8.99169 10.6237 8.9258C10.5103 8.85991 10.4166 8.76508 10.3519 8.65102Z" fill="#373737"/>
</svg>
