<svg width="24" height="24" viewBox="0 0 24 24" fill="none" xmlns="http://www.w3.org/2000/svg">
<path fill-rule="evenodd" clip-rule="evenodd" d="M6.75 2.25C5.92157 2.25 5.25 2.92157 5.25 3.75V20.25C5.25 21.0784 5.92157 21.75 6.75 21.75H17.25C18.0784 21.75 18.75 21.0784 18.75 20.25V3.75C18.75 2.92157 18.0784 2.25 17.25 2.25H6.75ZM3.75 3.75C3.75 2.09315 5.09315 0.75 6.75 0.75H17.25C18.9069 0.75 20.25 2.09315 20.25 3.75V20.25C20.25 21.9069 18.9069 23.25 17.25 23.25H6.75C5.09315 23.25 3.75 21.9069 3.75 20.25V3.75Z" fill="#373737"/>
<path fill-rule="evenodd" clip-rule="evenodd" d="M9 3.75C9 3.33579 9.33579 3 9.75 3H14.25C14.6642 3 15 3.33579 15 3.75C15 4.16421 14.6642 4.5 14.25 4.5H9.75C9.33579 4.5 9 4.16421 9 3.75Z" fill="#373737"/>
<path d="M15.6319 13.3364C15.455 13.1479 15.2407 12.9985 15.0028 12.8975C14.7648 12.7965 14.5085 12.7463 14.25 12.75C13.7063 12.75 13.2145 12.9567 12.8653 13.3327C12.5161 13.7086 12.3403 14.2289 12.3806 14.7858C12.4608 15.8864 13.2994 16.7812 14.25 16.7812C15.2006 16.7812 16.0378 15.8864 16.1189 14.7867C16.1602 14.2345 15.9867 13.7194 15.6319 13.3364Z" fill="#373737"/>
<path d="M17.423 21H11.077C10.9944 21.0013 10.9125 20.9845 10.8371 20.9507C10.7617 20.917 10.6946 20.867 10.6406 20.8045C10.5821 20.7344 10.54 20.6519 10.5176 20.5633C10.4952 20.4747 10.4931 20.3822 10.5113 20.2927C10.6636 19.4695 11.1384 18.7781 11.8847 18.293C12.5475 17.8622 13.3875 17.625 14.25 17.625C15.1125 17.625 15.9525 17.8622 16.6153 18.293C17.3616 18.7781 17.8364 19.4695 17.9888 20.2927C18.007 20.3822 18.0048 20.4747 17.9824 20.5633C17.96 20.6519 17.9179 20.7344 17.8594 20.8045C17.8054 20.867 17.7383 20.917 17.6629 20.9507C17.5875 20.9845 17.5056 21.0013 17.423 21Z" fill="#373737"/>
</svg>
