<svg width="24" height="22" viewBox="0 0 24 22" fill="none" xmlns="http://www.w3.org/2000/svg">
<path fill-rule="evenodd" clip-rule="evenodd" d="M2.99782 0.500003L3 0.5H18L18.0022 0.500003C18.7965 0.50231 19.5577 0.818891 20.1194 1.38059C20.6811 1.94229 20.9977 2.70346 21 3.49782L21 3.5V4.25H21.0942C22.699 4.25 24 5.55096 24 7.15578V17.8788C24.0001 17.8841 24.0001 17.8895 24 17.8948V18.5942C24 20.199 22.699 21.5 21.0942 21.5H6.65578C5.05096 21.5 3.75 20.199 3.75 18.5942V18.5H3L2.99782 18.5C2.20346 18.4977 1.44229 18.1811 0.880592 17.6194C0.318891 17.0577 0.00230996 16.2965 3.17395e-06 15.5022L0 15.5V3.5L3.17395e-06 3.49782C0.00230996 2.70346 0.318891 1.94229 0.880592 1.38059C1.44229 0.818892 2.20346 0.50231 2.99782 0.500003ZM22.5 16.2925V7.15578C22.5 6.37939 21.8706 5.75 21.0942 5.75H6.65578C5.87939 5.75 5.25 6.37939 5.25 7.15578V15.5087L9.47974 11.7768L9.48027 11.7764C9.8983 11.4082 10.4404 11.2124 10.9972 11.2284C11.554 11.2443 12.084 11.4709 12.4802 11.8624L12.4811 11.8633L16.4033 15.7513L17.4632 14.6991L17.4649 14.6974C17.8528 14.3149 18.3685 14.0897 18.9127 14.0651C19.4568 14.0406 19.9908 14.2185 20.4114 14.5645L20.4131 14.5659L22.5 16.2925ZM15.3388 16.8081L11.426 12.9295L11.4257 12.9292C11.2997 12.8048 11.1312 12.7328 10.9542 12.7278C10.7771 12.7227 10.6047 12.7849 10.4718 12.9019L10.4716 12.9021L5.25 17.5091V18.5942C5.25 19.3706 5.87939 20 6.65578 20H12.1236L15.3388 16.8081ZM14.2527 20L18.5182 15.7654L18.5189 15.7647C18.6426 15.6431 18.8069 15.5714 18.9803 15.5636C19.1536 15.5558 19.3237 15.6124 19.4579 15.7224L19.4586 15.723L22.5 18.2393V18.5942C22.5 19.3706 21.8706 20 21.0942 20H14.2527ZM19.5 3.50128V4.25H6.65578C5.05096 4.25 3.75 5.55096 3.75 7.15578V17H3.00128C2.60356 16.9986 2.2225 16.84 1.94125 16.5587C1.66002 16.2775 1.50141 15.8965 1.5 15.4988V3.5012C1.50141 3.1035 1.66002 2.72248 1.94125 2.44125C2.22248 2.16002 2.6035 2.00141 3.0012 2H17.9988C18.3965 2.00141 18.7775 2.16002 19.0587 2.44125C19.34 2.72251 19.4986 3.10356 19.5 3.50128ZM16.7882 9.29562C16.7882 8.92401 17.0931 8.61359 17.4806 8.61359C17.868 8.61359 18.1729 8.92401 18.1729 9.29562C18.1729 9.66723 17.868 9.97765 17.4806 9.97765C17.0931 9.97765 16.7882 9.66723 16.7882 9.29562ZM17.4806 7.11359C16.2748 7.11359 15.2882 8.08545 15.2882 9.29562C15.2882 10.5058 16.2748 11.4776 17.4806 11.4776C18.6863 11.4776 19.6729 10.5058 19.6729 9.29562C19.6729 8.08545 18.6863 7.11359 17.4806 7.11359Z" fill="#373737"/>
</svg>
