<svg width="24" height="24" viewBox="0 0 24 24" fill="none" xmlns="http://www.w3.org/2000/svg">
<path fill-rule="evenodd" clip-rule="evenodd" d="M3.75 3C2.92157 3 2.25 3.67157 2.25 4.5V19.5C2.25 20.3284 2.92157 21 3.75 21H20.25C21.0784 21 21.75 20.3284 21.75 19.5V4.5C21.75 3.67157 21.0784 3 20.25 3H3.75ZM0.75 4.5C0.75 2.84315 2.09315 1.5 3.75 1.5H20.25C21.9069 1.5 23.25 2.84315 23.25 4.5V19.5C23.25 21.1569 21.9069 22.5 20.25 22.5H3.75C2.09315 22.5 0.75 21.1569 0.75 19.5V4.5ZM3.91435 4.78148C4.17311 4.45803 4.64507 4.40559 4.96852 4.66435L8.71852 7.66435C8.89643 7.80668 9 8.02216 9 8.25C9 8.47784 8.89643 8.69332 8.71852 8.83565L4.96852 11.8357C4.64507 12.0944 4.17311 12.042 3.91435 11.7185C3.65559 11.3951 3.70803 10.9231 4.03148 10.6643L7.04941 8.25L4.03148 5.83565C3.70803 5.57689 3.65559 5.10493 3.91435 4.78148ZM8.25 11.25C8.25 10.8358 8.58579 10.5 9 10.5H12C12.4142 10.5 12.75 10.8358 12.75 11.25C12.75 11.6642 12.4142 12 12 12H9C8.58579 12 8.25 11.6642 8.25 11.25Z" fill="#373737"/>
</svg>
