<svg width="20" height="20" viewBox="0 0 20 20" fill="none" xmlns="http://www.w3.org/2000/svg">
<path fill-rule="evenodd" clip-rule="evenodd" d="M0.25 10C0.25 4.61704 4.61704 0.25 10 0.25C15.383 0.25 19.75 4.61704 19.75 10C19.75 15.383 15.383 19.75 10 19.75C4.61704 19.75 0.25 15.383 0.25 10ZM10 1.75C5.44546 1.75 1.75 5.44546 1.75 10C1.75 14.5545 5.44546 18.25 10 18.25C14.5545 18.25 18.25 14.5545 18.25 10C18.25 5.44546 14.5545 1.75 10 1.75Z" fill="#373737"/>
<path fill-rule="evenodd" clip-rule="evenodd" d="M15.7436 6.43528C16.0554 6.70786 16.0873 7.18167 15.8147 7.49355L10.5708 13.4936C10.4341 13.65 10.2387 13.7427 10.0311 13.7496C9.82347 13.7565 9.62229 13.677 9.47549 13.5301L7.22783 11.2801C6.93509 10.987 6.93534 10.5121 7.22838 10.2194C7.52143 9.92665 7.9963 9.9269 8.28904 10.2199L9.96951 11.9022L14.6853 6.50645C14.9579 6.19456 15.4317 6.1627 15.7436 6.43528Z" fill="#373737"/>
<path fill-rule="evenodd" clip-rule="evenodd" d="M4.21995 10.2194C4.51299 9.92665 4.98787 9.9269 5.28061 10.2199L7.52826 12.4699C7.821 12.763 7.82076 13.2379 7.52771 13.5306C7.23466 13.8233 6.75979 13.8231 6.46705 13.5301L4.21939 11.2801C3.92665 10.987 3.9269 10.5121 4.21995 10.2194Z" fill="#373737"/>
<path fill-rule="evenodd" clip-rule="evenodd" d="M12.8236 6.43521C13.1356 6.70775 13.1675 7.18155 12.8949 7.49347L10.4785 10.2591C10.206 10.571 9.7322 10.6029 9.42028 10.3304C9.10835 10.0579 9.07643 9.58408 9.34896 9.27215L11.7654 6.50653C12.0379 6.1946 12.5117 6.16267 12.8236 6.43521Z" fill="#373737"/>
</svg>
