<svg width="20" height="20" viewBox="0 0 20 20" fill="none" xmlns="http://www.w3.org/2000/svg">
<path fill-rule="evenodd" clip-rule="evenodd" d="M3.43835 3.25557C5.68635 1.2631 8.59352 0.25 11.3792 0.25C13.7656 0.25 16.103 0.995371 17.8653 2.54637L17.8659 2.54686L17.8664 2.54735C20.379 4.76753 20.3793 8.44402 17.8672 10.6645C17.8669 10.6647 17.8667 10.6649 17.8664 10.6652L16.4474 11.9249C16.25 12.1003 16.1968 12.269 16.1968 12.3906C16.1968 12.5123 16.25 12.681 16.4475 12.8564L16.4487 12.8574L16.4498 12.8585C16.5769 12.9723 16.6414 13.0123 16.7015 13.0392C16.7718 13.0707 16.8833 13.105 17.1311 13.146L17.1324 13.1462L17.1336 13.1464C17.1547 13.1499 17.1773 13.1536 17.2014 13.1576C17.5496 13.2143 18.1983 13.3201 18.671 13.757L18.6724 13.7583L18.6738 13.7596C19.121 14.1771 19.3525 14.7881 19.3714 15.3735C19.3906 15.9687 19.1916 16.6308 18.6546 17.1052C16.6751 18.8647 13.9283 19.75 11.1823 19.75H11.0999L11.0972 19.75C8.34852 19.7301 5.54018 18.8234 3.43874 16.9651C-0.812946 13.2073 -0.813076 7.01349 3.43835 3.25557ZM11.3792 1.75C8.94313 1.75 6.39424 2.63989 4.43292 4.37843L4.43252 4.37879L4.43211 4.37915C0.855801 7.54001 0.855801 12.6803 4.43211 15.8412L4.43227 15.8413C6.22077 17.4229 8.66121 18.2318 11.1053 18.25H11.1823C13.6295 18.25 16.001 17.4575 17.6589 15.9833L17.6601 15.9823L17.6612 15.9813C17.7983 15.8603 17.88 15.6652 17.8722 15.4218C17.864 15.1692 17.7611 14.9606 17.6516 14.8573C17.5381 14.7536 17.3354 14.7016 16.8856 14.6257C16.5948 14.5777 16.334 14.5182 16.0881 14.408C15.8323 14.2934 15.6368 14.1439 15.4502 13.9768C14.9781 13.557 14.6968 12.9973 14.6968 12.3906C14.6968 11.7834 14.9786 11.2232 15.4515 10.8033L16.8725 9.54168L16.8732 9.5411C18.7101 7.91792 18.7103 5.29529 16.8737 3.6719C15.4298 2.40134 13.4644 1.75 11.3792 1.75Z" fill="#373737"/>
<path d="M4.75058 9.25C5.57901 9.25 6.25058 8.57843 6.25058 7.75C6.25058 6.92157 5.57901 6.25 4.75058 6.25C3.92215 6.25 3.25058 6.92157 3.25058 7.75C3.25058 8.57843 3.92215 9.25 4.75058 9.25Z" fill="#373737"/>
<path d="M5.12558 14.0781C5.95401 14.0781 6.62558 13.4066 6.62558 12.5781C6.62558 11.7497 5.95401 11.0781 5.12558 11.0781C4.29715 11.0781 3.62558 11.7497 3.62558 12.5781C3.62558 13.4066 4.29715 14.0781 5.12558 14.0781Z" fill="#373737"/>
<path d="M8.50058 6.25C9.32901 6.25 10.0006 5.57843 10.0006 4.75C10.0006 3.92157 9.32901 3.25 8.50058 3.25C7.67215 3.25 7.00058 3.92157 7.00058 4.75C7.00058 5.57843 7.67215 6.25 8.50058 6.25Z" fill="#373737"/>
<path d="M10.0006 17.4531C11.2432 17.4531 12.2506 16.4458 12.2506 15.2031C12.2506 13.9605 11.2432 12.9531 10.0006 12.9531C8.75794 12.9531 7.75058 13.9605 7.75058 15.2031C7.75058 16.4458 8.75794 17.4531 10.0006 17.4531Z" fill="#373737"/>
<path d="M13.3756 6.25C14.204 6.25 14.8756 5.57843 14.8756 4.75C14.8756 3.92157 14.204 3.25 13.3756 3.25C12.5472 3.25 11.8756 3.92157 11.8756 4.75C11.8756 5.57843 12.5472 6.25 13.3756 6.25Z" fill="#373737"/>
</svg>
