<svg width="20" height="22" viewBox="0 0 20 22" fill="none" xmlns="http://www.w3.org/2000/svg">
<path d="M18.6344 5.05625L11.5094 0.907813C10.5813 0.364063 9.42344 0.364063 8.49531 0.907813L1.37031 5.05625C0.68125 5.45469 0.25 6.2 0.25 6.99688V15.0031C0.25 15.8 0.676563 16.5453 1.36563 16.9437L8.49063 21.0922C8.93594 21.35 9.42813 21.4859 9.92969 21.4953C9.95312 21.4953 9.97656 21.5 10 21.5C10.0234 21.5 10.0469 21.5 10.0703 21.4953C10.5672 21.4859 11.0641 21.35 11.5094 21.0922L18.6344 16.9437C19.3234 16.5406 19.75 15.8 19.75 15.0031V6.99688C19.75 6.2 19.3188 5.45469 18.6344 5.05625ZM9.24531 2.20625C9.47969 2.07031 9.7375 2.00469 10 2.00469C10.2625 2.00469 10.5203 2.07031 10.7547 2.20625L17.4672 6.11563L10 10.5031L2.53281 6.11094L9.24531 2.20625ZM2.12031 15.65C1.89063 15.5141 1.75 15.2656 1.75 15.0031V7.39062L9.25 11.8016V19.7938C9.25 19.7938 9.25 19.7938 9.24531 19.7938L2.12031 15.65ZM17.8797 15.65L10.7547 19.7984H10.75V11.8016L18.25 7.39062V14.9984C18.25 15.2656 18.1094 15.5141 17.8797 15.65Z" fill="#373737"/>
</svg>
