<svg width="10" height="10" viewBox="0 0 10 10" fill="none" xmlns="http://www.w3.org/2000/svg">
<path d="M3.5 0C3.77614 0 4 0.223858 4 0.5V1H6V0.5C6 0.223858 6.22386 0 6.5 0C6.77614 0 7 0.223858 7 0.5V1H8.5C9.05229 1 9.5 1.44772 9.5 2V8.5C9.5 9.05229 9.05229 9.5 8.5 9.5H1.5C0.947715 9.5 0.5 9.05229 0.5 8.5V2C0.5 1.44772 0.947715 1 1.5 1H3V0.5C3 0.223858 3.22386 0 3.5 0ZM3 2H1.5V3.5H8.5V2H7V2.5C7 2.77614 6.77614 3 6.5 3C6.22386 3 6 2.77614 6 2.5V2H4V2.5C4 2.77614 3.77614 3 3.5 3C3.22386 3 3 2.77614 3 2.5V2ZM8.5 4.5H1.5V8.5H8.5V4.5Z" fill="#6441A5"/>
</svg>
