<svg width="10" height="10" viewBox="0 0 10 10" fill="none" xmlns="http://www.w3.org/2000/svg">
<path d="M4.99998 0.25C5.18937 0.25 5.3625 0.357001 5.4472 0.526393L6.73665 3.1053L9.57195 3.51771C9.76027 3.5451 9.91671 3.67701 9.97551 3.858C10.0343 4.03898 9.98529 4.23765 9.84903 4.3705L7.78547 6.38247L8.24967 9.21926C8.28035 9.40674 8.20213 9.59541 8.0478 9.70619C7.89347 9.81697 7.68969 9.83072 7.52188 9.74168L4.99998 8.40353L2.47809 9.74168C2.31028 9.83072 2.1065 9.81697 1.95217 9.70619C1.79784 9.59541 1.71962 9.40674 1.7503 9.21926L2.2145 6.38247L0.150934 4.3705C0.0146812 4.23765 -0.034349 4.03898 0.0244543 3.858C0.0832575 3.67701 0.239699 3.5451 0.428014 3.51771L3.26332 3.1053L4.55277 0.526393C4.63747 0.357001 4.8106 0.25 4.99998 0.25ZM4.99998 1.86803L4.04095 3.78611C3.96777 3.93246 3.82762 4.03374 3.6657 4.05729L1.57418 4.36152L3.09903 5.84825C3.21588 5.96217 3.26977 6.12595 3.24342 6.28699L2.89999 8.38576L4.76563 7.39583C4.91219 7.31806 5.08778 7.31806 5.23434 7.39583L7.09998 8.38576L6.75655 6.28699C6.73019 6.12595 6.78409 5.96217 6.90093 5.84825L8.42579 4.36152L6.33426 4.05729C6.17235 4.03374 6.03219 3.93246 5.95902 3.78611L4.99998 1.86803Z" fill="#6441A5"/>
</svg>
