<svg xmlns="http://www.w3.org/2000/svg" width="14.488" height="13.041" viewBox="0 0 14.488 13.041">
  <path id="Fill_1184" data-name="Fill 1184" d="M10.865,13.041H3.622a1.816,1.816,0,0,1-1.811-1.818V5.034l-.852.622A.6.6,0,0,1,.6,5.772a.606.606,0,0,1-.356-1.1L6.178.348a1.806,1.806,0,0,1,2.131,0l5.929,4.328a.606.606,0,0,1-.355,1.1.6.6,0,0,1-.354-.116l-.852-.622v6.19A1.816,1.816,0,0,1,10.865,13.041ZM6.64,6.378H7.847A1.816,1.816,0,0,1,9.658,8.195V11.83h1.207a.606.606,0,0,0,.6-.606V4.153L7.6,1.327a.6.6,0,0,0-.71,0L3.018,4.153v7.071a.606.606,0,0,0,.6.606H4.829V8.195A1.816,1.816,0,0,1,6.64,6.378Zm0,1.212a.605.605,0,0,0-.6.605V11.83H8.451V8.195a.605.605,0,0,0-.6-.605Z" fill="#ff4409"/>
</svg>
