<svg xmlns="http://www.w3.org/2000/svg" width="16.767" height="17.359" viewBox="0 0 16.767 17.359">
  <path id="settings" d="M16.372,6.7l-1.289-.29a7.407,7.407,0,0,0-.415-1.035l.713-1.149a.533.533,0,0,0-.067-.647L13.307,1.5a.488.488,0,0,0-.625-.07l-1.11.739a6.882,6.882,0,0,0-1-.429L10.292.408A.505.505,0,0,0,9.8,0H6.964a.505.505,0,0,0-.49.408l-.28,1.334a6.882,6.882,0,0,0-1,.429l-1.11-.739a.488.488,0,0,0-.625.07L1.452,3.581a.533.533,0,0,0-.067.647L2.1,5.377a7.407,7.407,0,0,0-.415,1.035L.394,6.7A.515.515,0,0,0,0,7.21v2.939a.515.515,0,0,0,.395.507l1.289.29A7.406,7.406,0,0,0,2.1,11.982L1.384,13.13a.533.533,0,0,0,.067.647l2.008,2.079a.488.488,0,0,0,.625.07l1.11-.739a6.882,6.882,0,0,0,1,.429l.28,1.334a.505.505,0,0,0,.49.408H9.8a.505.505,0,0,0,.49-.408l.28-1.334a6.882,6.882,0,0,0,1-.429l1.11.739a.488.488,0,0,0,.625-.07l2.008-2.079a.533.533,0,0,0,.067-.647l-.713-1.149a7.407,7.407,0,0,0,.415-1.035l1.289-.29a.515.515,0,0,0,.395-.507V7.21A.515.515,0,0,0,16.372,6.7ZM11.389,8.68a3.064,3.064,0,0,1-3.006,3.112A3.064,3.064,0,0,1,5.377,8.68,3.064,3.064,0,0,1,8.383,5.567,3.064,3.064,0,0,1,11.389,8.68Zm0,0" transform="translate(0 0)" fill="#ff4409"/>
</svg>
