<svg xmlns="http://www.w3.org/2000/svg" width="57.021" height="41" viewBox="0 0 57.021 41">
  <g id="chart_svg" transform="translate(-566.175 -1218)">
    <g id="Group_4494" data-name="Group 4494" transform="translate(0 -3)">
      <path id="Path_3565" data-name="Path 3565" d="M-9572.867,1256.616v-33.18s3.535-2,5.25,2.765,1.24,19.736,6.389,14.969,3.621-24.122,10.2-17.734,2.1,14.683,6.77,19.45,11.061,9.249,15.064-5.911,6.387-23.454,8.771-19.259a36.7,36.7,0,0,1,4,15.35c.1,4.576.572,23.55.572,23.55Z" transform="translate(10139.042 5.384)" fill="#a4a5ff"/>
      <circle id="Ellipse_434" data-name="Ellipse 434" cx="1" cy="1" r="1" transform="translate(567 1227)" fill="#fcb527"/>
      <circle id="Ellipse_435" data-name="Ellipse 435" cx="1" cy="1" r="1" transform="translate(585 1227)" fill="#fcb527"/>
      <circle id="Ellipse_436" data-name="Ellipse 436" cx="1" cy="1" r="1" transform="translate(616 1221)" fill="#fcb527"/>
      <circle id="Ellipse_437" data-name="Ellipse 437" cx="1" cy="1" r="1" transform="translate(601 1252)" fill="#fcb527"/>
    </g>
  </g>
</svg>
