<svg xmlns="http://www.w3.org/2000/svg" width="13.953" height="15.026" viewBox="0 0 13.953 15.026">
  <g id="download" transform="translate(-1811 -691)">
    <g id="Group_4635" data-name="Group 4635" transform="translate(1811 700.66)">
      <g id="Group_4634" data-name="Group 4634" transform="translate(0)">
        <path id="Path_3761" data-name="Path 3761" d="M30.482,307.2a.537.537,0,0,0-.537.537v3.22a.537.537,0,0,1-.537.537H18.676a.537.537,0,0,1-.537-.537v-3.22a.537.537,0,1,0-1.073,0v3.22a1.61,1.61,0,0,0,1.61,1.61H29.409a1.61,1.61,0,0,0,1.61-1.61v-3.22A.537.537,0,0,0,30.482,307.2Z" transform="translate(-17.066 -307.2)" fill="#8f92a1"/>
      </g>
    </g>
    <g id="Group_4637" data-name="Group 4637" transform="translate(1814.763 691)">
      <g id="Group_4636" data-name="Group 4636" transform="translate(0)">
        <path id="Path_3762" data-name="Path 3762" d="M143.006,9.28a.537.537,0,0,0-.746,0l-1.768,1.767V.537a.537.537,0,1,0-1.073,0V11.048L137.651,9.28a.537.537,0,0,0-.759.759l2.683,2.683a.537.537,0,0,0,.759,0h0l2.683-2.683A.537.537,0,0,0,143.006,9.28Z" transform="translate(-136.742)" fill="#8f92a1"/>
      </g>
    </g>
  </g>
</svg>
